<svg width="428" height="370" viewBox="0 0 428 370" fill="none" xmlns="http://www.w3.org/2000/svg">
<path d="M375.803 87.9637V88.7464H376.436V89.0233H375.803V91.0606C375.803 91.2301 375.833 91.3563 375.893 91.4392C375.956 91.5221 376.058 91.5635 376.201 91.5635C376.258 91.5635 376.349 91.5541 376.476 91.5353L376.49 91.8122C376.401 91.8442 376.281 91.8602 376.128 91.8602C375.896 91.8602 375.728 91.7934 375.622 91.6596C375.517 91.524 375.464 91.3252 375.464 91.0634V89.0233H374.902V88.7464H375.464V87.9637H375.803ZM378.321 91.8602C378.061 91.8602 377.825 91.7962 377.614 91.6681C377.405 91.54 377.242 91.362 377.125 91.134C377.009 90.9042 376.95 90.6471 376.95 90.3626V90.2411C376.95 89.9473 377.007 89.6826 377.12 89.4471C377.235 89.2117 377.394 89.027 377.597 88.8933C377.801 88.7577 378.021 88.6898 378.258 88.6898C378.63 88.6898 378.923 88.817 379.14 89.0713C379.359 89.3237 379.468 89.6694 379.468 90.1083V90.2976H377.286V90.3626C377.286 90.7092 377.385 90.9984 377.583 91.2301C377.783 91.4599 378.033 91.5748 378.335 91.5748C378.516 91.5748 378.675 91.5419 378.812 91.4759C378.952 91.41 379.078 91.3045 379.191 91.1595L379.403 91.3205C379.154 91.6803 378.793 91.8602 378.321 91.8602ZM378.258 88.9781C378.004 88.9781 377.789 89.0713 377.614 89.2578C377.441 89.4443 377.335 89.6948 377.298 90.0094H379.132V89.9727C379.122 89.6788 379.038 89.4396 378.88 89.255C378.722 89.0704 378.515 88.9781 378.258 88.9781ZM381.539 89.0346C381.467 89.0214 381.391 89.0148 381.31 89.0148C381.099 89.0148 380.92 89.0741 380.773 89.1928C380.628 89.3096 380.525 89.4801 380.462 89.7043V91.8037H380.126V88.7464H380.457L380.462 89.2324C380.641 88.8707 380.929 88.6898 381.324 88.6898C381.419 88.6898 381.493 88.7021 381.548 88.7266L381.539 89.0346ZM384.534 90.3061C384.534 90.7827 384.429 91.1613 384.218 91.442C384.007 91.7208 383.724 91.8602 383.37 91.8602C382.952 91.8602 382.632 91.7133 382.409 91.4194V92.9792H382.073V88.7464H382.387L382.404 89.1787C382.624 88.8528 382.943 88.6898 383.362 88.6898C383.727 88.6898 384.013 88.8283 384.221 89.1052C384.43 89.3821 384.534 89.7664 384.534 90.2581V90.3061ZM384.195 90.2468C384.195 89.8568 384.115 89.5488 383.955 89.3228C383.795 89.0967 383.572 88.9837 383.285 88.9837C383.078 88.9837 382.9 89.0336 382.751 89.1335C382.602 89.2333 382.488 89.3784 382.409 89.5686V91.0351C382.49 91.2103 382.606 91.3441 382.757 91.4364C382.908 91.5287 383.086 91.5748 383.291 91.5748C383.575 91.5748 383.797 91.4618 383.955 91.2358C384.115 91.0078 384.195 90.6782 384.195 90.2468ZM386.47 91.8602C386.21 91.8602 385.974 91.7962 385.763 91.6681C385.554 91.54 385.391 91.362 385.275 91.134C385.158 90.9042 385.099 90.6471 385.099 90.3626V90.2411C385.099 89.9473 385.156 89.6826 385.269 89.4471C385.384 89.2117 385.543 89.027 385.746 88.8933C385.95 88.7577 386.17 88.6898 386.408 88.6898C386.779 88.6898 387.073 88.817 387.289 89.0713C387.508 89.3237 387.617 89.6694 387.617 90.1083V90.2976H385.436V90.3626C385.436 90.7092 385.535 90.9984 385.732 91.2301C385.932 91.4599 386.183 91.5748 386.484 91.5748C386.665 91.5748 386.824 91.5419 386.961 91.4759C387.101 91.41 387.227 91.3045 387.34 91.1595L387.552 91.3205C387.303 91.6803 386.943 91.8602 386.47 91.8602ZM386.408 88.9781C386.153 88.9781 385.939 89.0713 385.763 89.2578C385.59 89.4443 385.485 89.6948 385.447 90.0094H387.281V89.9727C387.271 89.6788 387.188 89.4396 387.029 89.255C386.871 89.0704 386.664 88.9781 386.408 88.9781ZM388.598 88.7464L388.609 89.2691C388.724 89.0807 388.867 88.9376 389.038 88.8396C389.21 88.7398 389.399 88.6898 389.606 88.6898C389.934 88.6898 390.178 88.7822 390.338 88.9668C390.498 89.1514 390.579 89.4283 390.581 89.7975V91.8037H390.245V89.7947C390.243 89.5215 390.185 89.3181 390.07 89.1843C389.957 89.0506 389.775 88.9837 389.524 88.9837C389.315 88.9837 389.13 89.0496 388.968 89.1815C388.808 89.3115 388.689 89.4876 388.612 89.7099V91.8037H388.275V88.7464H388.598ZM392.641 91.8602C392.381 91.8602 392.146 91.7962 391.935 91.6681C391.726 91.54 391.563 91.362 391.446 91.134C391.329 90.9042 391.271 90.6471 391.271 90.3626V90.2411C391.271 89.9473 391.327 89.6826 391.44 89.4471C391.555 89.2117 391.714 89.027 391.918 88.8933C392.121 88.7577 392.342 88.6898 392.579 88.6898C392.95 88.6898 393.244 88.817 393.46 89.0713C393.679 89.3237 393.788 89.6694 393.788 90.1083V90.2976H391.607V90.3626C391.607 90.7092 391.706 90.9984 391.904 91.2301C392.103 91.4599 392.354 91.5748 392.655 91.5748C392.836 91.5748 392.995 91.5419 393.133 91.4759C393.272 91.41 393.398 91.3045 393.511 91.1595L393.723 91.3205C393.475 91.6803 393.114 91.8602 392.641 91.8602ZM392.579 88.9781C392.325 88.9781 392.11 89.0713 391.935 89.2578C391.761 89.4443 391.656 89.6948 391.618 90.0094H393.452V89.9727C393.443 89.6788 393.359 89.4396 393.201 89.255C393.042 89.0704 392.835 88.9781 392.579 88.9781ZM396.278 91.0267C396.278 90.859 396.21 90.7243 396.074 90.6226C395.94 90.5209 395.738 90.4417 395.467 90.3852C395.195 90.3268 394.984 90.2609 394.834 90.1874C394.685 90.1121 394.574 90.0207 394.5 89.9134C394.429 89.806 394.393 89.676 394.393 89.5234C394.393 89.2823 394.494 89.0836 394.695 88.9272C394.897 88.769 395.155 88.6898 395.47 88.6898C395.81 88.6898 396.084 88.7746 396.289 88.9442C396.496 89.1118 396.6 89.3313 396.6 89.6025H396.261C396.261 89.4236 396.185 89.2748 396.035 89.1561C395.886 89.0374 395.697 88.9781 395.47 88.9781C395.247 88.9781 395.068 89.028 394.933 89.1278C394.799 89.2258 394.732 89.3539 394.732 89.5121C394.732 89.6647 394.788 89.7834 394.899 89.8681C395.012 89.951 395.216 90.0273 395.512 90.097C395.81 90.1667 396.032 90.2411 396.179 90.3202C396.328 90.3994 396.438 90.4945 396.509 90.6056C396.581 90.7168 396.617 90.8515 396.617 91.0097C396.617 91.2678 396.512 91.4741 396.303 91.6285C396.096 91.783 395.825 91.8602 395.489 91.8602C395.133 91.8602 394.844 91.7745 394.622 91.6031C394.401 91.4298 394.291 91.2113 394.291 90.9475H394.63C394.643 91.1453 394.726 91.2998 394.879 91.4109C395.033 91.5202 395.237 91.5748 395.489 91.5748C395.725 91.5748 395.915 91.523 396.06 91.4194C396.205 91.3158 396.278 91.1849 396.278 91.0267ZM400.717 91.8037C400.683 91.7076 400.661 91.5654 400.652 91.377C400.533 91.5315 400.381 91.6511 400.197 91.7359C400.014 91.8188 399.82 91.8602 399.615 91.8602C399.321 91.8602 399.083 91.7783 398.9 91.6144C398.719 91.4505 398.629 91.2433 398.629 90.9928C398.629 90.6951 398.752 90.4596 398.999 90.2863C399.247 90.113 399.593 90.0264 400.036 90.0264H400.649V89.6788C400.649 89.4603 400.581 89.2889 400.445 89.1646C400.312 89.0383 400.116 88.9752 399.858 88.9752C399.622 88.9752 399.427 89.0355 399.273 89.1561C399.118 89.2766 399.041 89.4217 399.041 89.5912L398.702 89.5884C398.702 89.3454 398.815 89.1354 399.041 88.9583C399.267 88.7793 399.545 88.6898 399.875 88.6898C400.216 88.6898 400.484 88.7756 400.68 88.947C400.878 89.1165 400.98 89.3539 400.985 89.659V91.1058C400.985 91.4015 401.016 91.6229 401.078 91.7698V91.8037H400.717ZM399.654 91.5607C399.88 91.5607 400.082 91.5061 400.259 91.3968C400.438 91.2876 400.568 91.1416 400.649 90.9588V90.2863H400.044C399.707 90.2901 399.443 90.3523 399.253 90.4728C399.063 90.5915 398.968 90.7554 398.968 90.9645C398.968 91.1359 399.031 91.2781 399.157 91.3912C399.285 91.5042 399.451 91.5607 399.654 91.5607ZM402.212 88.7464L402.223 89.2691C402.338 89.0807 402.481 88.9376 402.652 88.8396C402.824 88.7398 403.013 88.6898 403.22 88.6898C403.548 88.6898 403.792 88.7822 403.952 88.9668C404.112 89.1514 404.193 89.4283 404.195 89.7975V91.8037H403.859V89.7947C403.857 89.5215 403.799 89.3181 403.684 89.1843C403.571 89.0506 403.389 88.9837 403.138 88.9837C402.929 88.9837 402.744 89.0496 402.582 89.1815C402.422 89.3115 402.303 89.4876 402.226 89.7099V91.8037H401.889V88.7464H402.212ZM404.935 90.2468C404.935 89.7721 405.041 89.3944 405.252 89.1137C405.465 88.8311 405.753 88.6898 406.117 88.6898C406.529 88.6898 406.844 88.8528 407.06 89.1787V87.4635H407.397V91.8037H407.08L407.066 91.3968C406.849 91.7058 406.531 91.8602 406.111 91.8602C405.759 91.8602 405.474 91.7189 405.258 91.4364C405.043 91.1519 404.935 90.7686 404.935 90.2863V90.2468ZM405.277 90.3061C405.277 90.6961 405.356 91.0041 405.512 91.2301C405.668 91.4543 405.889 91.5664 406.173 91.5664C406.589 91.5664 406.885 91.3827 407.06 91.0154V89.5799C406.885 89.1825 406.591 88.9837 406.179 88.9837C405.894 88.9837 405.673 89.0958 405.515 89.32C405.356 89.5423 405.277 89.871 405.277 90.3061ZM378.872 94.9637V95.7464H379.505V96.0233H378.872V98.0606C378.872 98.2301 378.902 98.3563 378.962 98.4392C379.024 98.5221 379.127 98.5635 379.27 98.5635C379.327 98.5635 379.418 98.5541 379.544 98.5353L379.558 98.8122C379.47 98.8442 379.349 98.8602 379.197 98.8602C378.965 98.8602 378.796 98.7934 378.691 98.6596C378.585 98.524 378.533 98.3252 378.533 98.0634V96.0233H377.97V95.7464H378.533V94.9637H378.872ZM381.389 98.8602C381.129 98.8602 380.894 98.7962 380.683 98.6681C380.474 98.54 380.311 98.362 380.194 98.134C380.077 97.9042 380.019 97.6471 380.019 97.3626V97.2411C380.019 96.9473 380.075 96.6826 380.188 96.4471C380.303 96.2117 380.462 96.027 380.666 95.8933C380.869 95.7577 381.09 95.6898 381.327 95.6898C381.698 95.6898 381.992 95.817 382.209 96.0713C382.427 96.3237 382.537 96.6694 382.537 97.1083V97.2976H380.355V97.3626C380.355 97.7092 380.454 97.9984 380.652 98.2301C380.851 98.4599 381.102 98.5748 381.403 98.5748C381.584 98.5748 381.743 98.5419 381.881 98.4759C382.02 98.41 382.147 98.3045 382.26 98.1595L382.472 98.3205C382.223 98.6803 381.862 98.8602 381.389 98.8602ZM381.327 95.9781C381.073 95.9781 380.858 96.0713 380.683 96.2578C380.51 96.4443 380.404 96.6948 380.366 97.0094H382.2V96.9727C382.191 96.6788 382.107 96.4396 381.949 96.255C381.791 96.0704 381.583 95.9781 381.327 95.9781ZM384.608 96.0346C384.536 96.0214 384.46 96.0148 384.379 96.0148C384.168 96.0148 383.989 96.0741 383.842 96.1928C383.697 96.3096 383.593 96.4801 383.531 96.7043V98.8037H383.195V95.7464H383.526L383.531 96.2324C383.71 95.8707 383.997 95.6898 384.393 95.6898C384.487 95.6898 384.562 95.7021 384.616 95.7266L384.608 96.0346ZM387.603 97.3061C387.603 97.7827 387.497 98.1613 387.286 98.442C387.075 98.7208 386.793 98.8602 386.439 98.8602C386.021 98.8602 385.7 98.7133 385.478 98.4194V99.9792H385.142V95.7464H385.455L385.472 96.1787C385.693 95.8528 386.012 95.6898 386.43 95.6898C386.796 95.6898 387.082 95.8283 387.289 96.1052C387.498 96.3821 387.603 96.7664 387.603 97.2581V97.3061ZM387.264 97.2468C387.264 96.8568 387.184 96.5488 387.024 96.3228C386.864 96.0967 386.64 95.9837 386.354 95.9837C386.147 95.9837 385.969 96.0336 385.82 96.1335C385.671 96.2333 385.557 96.3784 385.478 96.5686V98.0351C385.559 98.2103 385.675 98.3441 385.826 98.4364C385.976 98.5287 386.154 98.5748 386.36 98.5748C386.644 98.5748 386.865 98.4618 387.024 98.2358C387.184 98.0078 387.264 97.6782 387.264 97.2468ZM389.538 98.8602C389.279 98.8602 389.043 98.7962 388.832 98.6681C388.623 98.54 388.46 98.362 388.343 98.134C388.226 97.9042 388.168 97.6471 388.168 97.3626V97.2411C388.168 96.9473 388.225 96.6826 388.338 96.4471C388.452 96.2117 388.612 96.027 388.815 95.8933C389.019 95.7577 389.239 95.6898 389.476 95.6898C389.847 95.6898 390.141 95.817 390.358 96.0713C390.576 96.3237 390.686 96.6694 390.686 97.1083V97.2976H388.504V97.3626C388.504 97.7092 388.603 97.9984 388.801 98.2301C389.001 98.4599 389.251 98.5748 389.553 98.5748C389.733 98.5748 389.893 98.5419 390.03 98.4759C390.17 98.41 390.296 98.3045 390.409 98.1595L390.621 98.3205C390.372 98.6803 390.011 98.8602 389.538 98.8602ZM389.476 95.9781C389.222 95.9781 389.007 96.0713 388.832 96.2578C388.659 96.4443 388.553 96.6948 388.516 97.0094H390.349V96.9727C390.34 96.6788 390.256 96.4396 390.098 96.255C389.94 96.0704 389.733 95.9781 389.476 95.9781ZM391.666 95.7464L391.677 96.2691C391.792 96.0807 391.936 95.9376 392.107 95.8396C392.278 95.7398 392.468 95.6898 392.675 95.6898C393.003 95.6898 393.247 95.7822 393.407 95.9668C393.567 96.1514 393.648 96.4283 393.65 96.7975V98.8037H393.314V96.7947C393.312 96.5215 393.253 96.3181 393.138 96.1843C393.025 96.0506 392.844 95.9837 392.593 95.9837C392.384 95.9837 392.198 96.0496 392.036 96.1815C391.876 96.3115 391.758 96.4876 391.68 96.7099V98.8037H391.344V95.7464H391.666ZM394.339 97.2298C394.339 96.936 394.396 96.6713 394.509 96.4358C394.624 96.2003 394.785 96.0176 394.992 95.8876C395.201 95.7558 395.437 95.6898 395.701 95.6898C396.108 95.6898 396.438 95.833 396.69 96.1193C396.943 96.4038 397.069 96.7815 397.069 97.2524V97.3231C397.069 97.6188 397.011 97.8854 396.896 98.1227C396.783 98.3582 396.623 98.54 396.416 98.6681C396.209 98.7962 395.972 98.8602 395.707 98.8602C395.302 98.8602 394.972 98.718 394.718 98.4336C394.465 98.1472 394.339 97.7686 394.339 97.2976V97.2298ZM394.678 97.3231C394.678 97.6885 394.773 97.989 394.961 98.2245C395.151 98.458 395.4 98.5748 395.707 98.5748C396.012 98.5748 396.259 98.458 396.447 98.2245C396.637 97.989 396.733 97.6791 396.733 97.2948V97.2298C396.733 96.9962 396.689 96.7824 396.603 96.5884C396.516 96.3944 396.394 96.2446 396.238 96.1391C396.082 96.0318 395.903 95.9781 395.701 95.9781C395.4 95.9781 395.154 96.0967 394.964 96.3341C394.773 96.5696 394.678 96.8785 394.678 97.2609V97.3231ZM398.148 98.8037H397.809V95.7464H398.148V98.8037ZM397.75 94.8619C397.75 94.7979 397.771 94.7442 397.812 94.7009C397.853 94.6557 397.91 94.6331 397.982 94.6331C398.053 94.6331 398.11 94.6557 398.151 94.7009C398.194 94.7442 398.216 94.7979 398.216 94.8619C398.216 94.926 398.194 94.9797 398.151 95.023C398.11 95.0663 398.053 95.088 397.982 95.088C397.91 95.088 397.853 95.0663 397.812 95.023C397.771 94.9797 397.75 94.926 397.75 94.8619ZM398.934 97.2468C398.934 96.7721 399.039 96.3944 399.25 96.1137C399.463 95.8311 399.751 95.6898 400.115 95.6898C400.527 95.6898 400.842 95.8528 401.059 96.1787V94.4635H401.395V98.8037H401.078L401.064 98.3968C400.848 98.7058 400.529 98.8602 400.109 98.8602C399.757 98.8602 399.473 98.7189 399.256 98.4364C399.041 98.1519 398.934 97.7686 398.934 97.2863V97.2468ZM399.276 97.3061C399.276 97.6961 399.354 98.0041 399.51 98.2301C399.667 98.4543 399.887 98.5664 400.171 98.5664C400.588 98.5664 400.883 98.3827 401.059 98.0154V96.5799C400.883 96.1825 400.59 95.9837 400.177 95.9837C399.893 95.9837 399.671 96.0958 399.513 96.32C399.355 96.5423 399.276 96.871 399.276 97.3061ZM404.116 98.0267C404.116 97.859 404.048 97.7243 403.913 97.6226C403.779 97.5209 403.576 97.4417 403.305 97.3852C403.034 97.3268 402.823 97.2609 402.672 97.1874C402.523 97.1121 402.412 97.0207 402.339 96.9134C402.267 96.806 402.231 96.676 402.231 96.5234C402.231 96.2823 402.332 96.0836 402.534 95.9272C402.735 95.769 402.993 95.6898 403.308 95.6898C403.649 95.6898 403.922 95.7746 404.127 95.9442C404.335 96.1118 404.438 96.3313 404.438 96.6025H404.099C404.099 96.4236 404.024 96.2748 403.873 96.1561C403.724 96.0374 403.536 95.9781 403.308 95.9781C403.086 95.9781 402.907 96.028 402.771 96.1278C402.637 96.2258 402.57 96.3539 402.57 96.5121C402.57 96.6647 402.626 96.7834 402.737 96.8681C402.85 96.951 403.054 97.0273 403.35 97.097C403.648 97.1667 403.87 97.2411 404.017 97.3202C404.166 97.3994 404.276 97.4945 404.348 97.6056C404.419 97.7168 404.455 97.8515 404.455 98.0097C404.455 98.2678 404.351 98.4741 404.141 98.6285C403.934 98.783 403.663 98.8602 403.328 98.8602C402.972 98.8602 402.682 98.7745 402.46 98.6031C402.24 98.4298 402.13 98.2113 402.13 97.9475H402.469C402.482 98.1453 402.565 98.2998 402.717 98.4109C402.872 98.5202 403.075 98.5748 403.328 98.5748C403.563 98.5748 403.753 98.523 403.898 98.4194C404.043 98.3158 404.116 98.1849 404.116 98.0267Z" fill="black"/>
<path d="M402.088 234.945C402.051 234.841 402.027 234.687 402.017 234.483C401.889 234.65 401.724 234.78 401.524 234.872C401.326 234.962 401.116 235.007 400.894 235.007C400.575 235.007 400.317 234.918 400.119 234.74C399.923 234.563 399.825 234.338 399.825 234.067C399.825 233.744 399.959 233.489 400.226 233.301C400.496 233.114 400.87 233.02 401.35 233.02H402.014V232.643C402.014 232.407 401.941 232.221 401.794 232.086C401.649 231.949 401.437 231.881 401.157 231.881C400.902 231.881 400.691 231.946 400.523 232.077C400.356 232.208 400.272 232.365 400.272 232.548L399.905 232.545C399.905 232.282 400.027 232.055 400.272 231.863C400.517 231.669 400.818 231.572 401.175 231.572C401.545 231.572 401.835 231.665 402.048 231.851C402.262 232.034 402.372 232.291 402.378 232.622V234.189C402.378 234.51 402.412 234.749 402.479 234.909V234.945H402.088ZM400.937 234.682C401.181 234.682 401.4 234.623 401.592 234.505C401.785 234.386 401.926 234.228 402.014 234.03V233.301H401.359C400.994 233.306 400.708 233.373 400.502 233.504C400.296 233.632 400.193 233.81 400.193 234.036C400.193 234.222 400.261 234.376 400.398 234.498C400.537 234.621 400.716 234.682 400.937 234.682ZM403.768 234.945H403.401V230.243H403.768V234.945ZM404.619 233.259C404.619 232.744 404.733 232.335 404.962 232.031C405.193 231.725 405.505 231.572 405.899 231.572C406.346 231.572 406.686 231.748 406.921 232.102V230.243H407.285V234.945H406.942L406.927 234.505C406.692 234.839 406.348 235.007 405.892 235.007C405.511 235.007 405.203 234.853 404.968 234.547C404.735 234.239 404.619 233.824 404.619 233.301V233.259ZM404.989 233.323C404.989 233.745 405.074 234.079 405.244 234.324C405.413 234.567 405.652 234.688 405.96 234.688C406.411 234.688 406.731 234.489 406.921 234.091V232.536C406.731 232.106 406.413 231.89 405.966 231.89C405.658 231.89 405.418 232.012 405.247 232.255C405.075 232.495 404.989 232.852 404.989 233.323ZM409.532 235.007C409.251 235.007 408.995 234.937 408.767 234.798C408.54 234.66 408.364 234.467 408.237 234.22C408.111 233.971 408.048 233.692 408.048 233.384V233.253C408.048 232.934 408.109 232.647 408.231 232.392C408.356 232.137 408.528 231.937 408.748 231.792C408.969 231.645 409.208 231.572 409.465 231.572C409.867 231.572 410.185 231.71 410.42 231.985C410.657 232.259 410.775 232.633 410.775 233.109V233.314H408.412V233.384C408.412 233.76 408.519 234.073 408.733 234.324C408.95 234.573 409.221 234.697 409.547 234.697C409.743 234.697 409.916 234.662 410.065 234.59C410.216 234.519 410.353 234.405 410.475 234.247L410.705 234.422C410.435 234.812 410.044 235.007 409.532 235.007ZM409.465 231.884C409.189 231.884 408.957 231.985 408.767 232.187C408.579 232.389 408.465 232.661 408.424 233.002H410.411V232.962C410.4 232.643 410.31 232.384 410.138 232.184C409.967 231.984 409.742 231.884 409.465 231.884ZM411.852 232.193C411.973 231.995 412.127 231.842 412.315 231.734C412.502 231.626 412.708 231.572 412.93 231.572C413.285 231.572 413.549 231.672 413.723 231.872C413.896 232.072 413.984 232.372 413.986 232.772V234.945H413.622V232.769C413.62 232.473 413.556 232.253 413.432 232.108C413.31 231.963 413.113 231.89 412.841 231.89C412.615 231.89 412.414 231.962 412.238 232.105C412.065 232.245 411.936 232.436 411.852 232.677V234.945H411.488V230.243H411.852V232.193ZM415.979 234.419L416.946 231.633H417.341L415.927 235.509L415.853 235.68C415.672 236.082 415.391 236.283 415.012 236.283C414.924 236.283 414.83 236.269 414.73 236.24L414.727 235.937L414.917 235.955C415.096 235.955 415.241 235.911 415.351 235.821C415.464 235.733 415.558 235.581 415.636 235.365L415.798 234.918L414.549 231.633H414.95L415.979 234.419ZM417.721 233.259C417.721 232.744 417.835 232.335 418.063 232.031C418.294 231.725 418.606 231.572 419 231.572C419.447 231.572 419.788 231.748 420.023 232.102V230.243H420.387V234.945H420.044L420.029 234.505C419.794 234.839 419.449 235.007 418.994 235.007C418.612 235.007 418.304 234.853 418.07 234.547C417.837 234.239 417.721 233.824 417.721 233.301V233.259ZM418.091 233.323C418.091 233.745 418.176 234.079 418.345 234.324C418.514 234.567 418.753 234.688 419.061 234.688C419.512 234.688 419.833 234.489 420.023 234.091V232.536C419.833 232.106 419.514 231.89 419.068 231.89C418.759 231.89 418.52 232.012 418.348 232.255C418.177 232.495 418.091 232.852 418.091 233.323ZM422.634 235.007C422.352 235.007 422.097 234.937 421.868 234.798C421.642 234.66 421.465 234.467 421.339 234.22C421.212 233.971 421.149 233.692 421.149 233.384V233.253C421.149 232.934 421.21 232.647 421.333 232.392C421.457 232.137 421.63 231.937 421.85 231.792C422.07 231.645 422.309 231.572 422.566 231.572C422.968 231.572 423.287 231.71 423.521 231.985C423.758 232.259 423.877 232.633 423.877 233.109V233.314H421.513V233.384C421.513 233.76 421.621 234.073 421.835 234.324C422.051 234.573 422.323 234.697 422.649 234.697C422.845 234.697 423.017 234.662 423.166 234.59C423.317 234.519 423.454 234.405 423.577 234.247L423.806 234.422C423.537 234.812 423.146 235.007 422.634 235.007ZM422.566 231.884C422.291 231.884 422.058 231.985 421.868 232.187C421.681 232.389 421.566 232.661 421.526 233.002H423.512V232.962C423.502 232.643 423.411 232.384 423.24 232.184C423.068 231.984 422.844 231.884 422.566 231.884ZM426.573 234.104C426.573 233.922 426.5 233.776 426.353 233.666C426.208 233.556 425.989 233.47 425.695 233.409C425.401 233.345 425.172 233.274 425.009 233.194C424.848 233.113 424.728 233.014 424.648 232.897C424.57 232.781 424.532 232.64 424.532 232.475C424.532 232.214 424.641 231.998 424.859 231.829C425.078 231.658 425.357 231.572 425.698 231.572C426.067 231.572 426.363 231.664 426.586 231.847C426.81 232.029 426.922 232.267 426.922 232.561H426.555C426.555 232.367 426.473 232.206 426.31 232.077C426.149 231.948 425.945 231.884 425.698 231.884C425.457 231.884 425.263 231.938 425.116 232.046C424.971 232.153 424.899 232.291 424.899 232.463C424.899 232.628 424.959 232.757 425.08 232.848C425.202 232.938 425.423 233.021 425.744 233.096C426.066 233.172 426.307 233.253 426.466 233.338C426.627 233.424 426.747 233.527 426.824 233.647C426.902 233.768 426.941 233.914 426.941 234.085C426.941 234.365 426.827 234.588 426.601 234.756C426.376 234.923 426.083 235.007 425.719 235.007C425.334 235.007 425.02 234.914 424.78 234.728C424.541 234.54 424.421 234.303 424.421 234.018H424.789C424.803 234.232 424.893 234.399 425.058 234.52C425.225 234.638 425.446 234.697 425.719 234.697C425.974 234.697 426.181 234.641 426.338 234.529C426.495 234.417 426.573 234.275 426.573 234.104Z" fill="black"/>
<path d="M153.452 23.8262C153.452 23.5079 153.514 23.2211 153.636 22.966C153.761 22.7109 153.935 22.513 154.16 22.3722C154.386 22.2293 154.642 22.1579 154.928 22.1579C155.369 22.1579 155.726 22.313 155.999 22.6232C156.273 22.9313 156.409 23.3405 156.409 23.8507V23.9272C156.409 24.2476 156.347 24.5364 156.223 24.7935C156.1 25.0486 155.927 25.2455 155.702 25.3843C155.478 25.5231 155.222 25.5925 154.934 25.5925C154.495 25.5925 154.138 25.4384 153.863 25.1302C153.589 24.8201 153.452 24.4099 153.452 23.8997V23.8262ZM153.82 23.9272C153.82 24.3231 153.922 24.6486 154.126 24.9037C154.332 25.1568 154.601 25.2833 154.934 25.2833C155.265 25.2833 155.532 25.1568 155.736 24.9037C155.942 24.6486 156.045 24.3129 156.045 23.8966V23.8262C156.045 23.5732 155.998 23.3415 155.904 23.1313C155.811 22.9211 155.679 22.7589 155.509 22.6446C155.34 22.5283 155.146 22.4701 154.928 22.4701C154.601 22.4701 154.335 22.5987 154.129 22.8558C153.923 23.1109 153.82 23.4456 153.82 23.8599V23.9272ZM158.699 22.5314C158.622 22.5171 158.539 22.5099 158.451 22.5099C158.223 22.5099 158.029 22.5742 157.87 22.7028C157.712 22.8293 157.6 23.014 157.533 23.2568V25.5312H157.169V22.2191H157.527L157.533 22.7456C157.727 22.3538 158.038 22.1579 158.467 22.1579C158.569 22.1579 158.649 22.1712 158.708 22.1977L158.699 22.5314ZM159.073 23.8446C159.073 23.3262 159.187 22.916 159.415 22.614C159.646 22.3099 159.958 22.1579 160.352 22.1579C160.803 22.1579 161.146 22.3375 161.381 22.6967L161.399 22.2191H161.742V25.4639C161.742 25.8904 161.623 26.2282 161.384 26.4771C161.145 26.7261 160.822 26.8506 160.413 26.8506C160.183 26.8506 159.962 26.7986 159.752 26.6945C159.544 26.5924 159.38 26.4557 159.259 26.2843L159.464 26.0639C159.724 26.3822 160.032 26.5414 160.389 26.5414C160.695 26.5414 160.934 26.4506 161.105 26.269C161.277 26.0894 161.365 25.8394 161.372 25.519V25.1027C161.137 25.4292 160.795 25.5925 160.346 25.5925C159.962 25.5925 159.654 25.4394 159.422 25.1333C159.189 24.8272 159.073 24.4139 159.073 23.8936V23.8446ZM159.443 23.9089C159.443 24.3313 159.528 24.665 159.697 24.9098C159.866 25.1527 160.105 25.2741 160.413 25.2741C160.864 25.2741 161.184 25.0721 161.372 24.668V23.1283C161.286 22.916 161.162 22.7548 161.001 22.6446C160.84 22.5324 160.646 22.4763 160.42 22.4763C160.111 22.4763 159.872 22.5977 159.7 22.8405C159.529 23.0813 159.443 23.4374 159.443 23.9089ZM164.788 25.5312C164.751 25.4272 164.728 25.2731 164.717 25.069C164.589 25.2364 164.424 25.3659 164.224 25.4578C164.027 25.5476 163.816 25.5925 163.594 25.5925C163.276 25.5925 163.017 25.5037 162.819 25.3262C162.624 25.1486 162.526 24.9241 162.526 24.6527C162.526 24.3303 162.659 24.0752 162.927 23.8874C163.196 23.6997 163.57 23.6058 164.05 23.6058H164.714V23.2293C164.714 22.9926 164.641 22.8069 164.494 22.6722C164.349 22.5354 164.137 22.4671 163.857 22.4671C163.602 22.4671 163.391 22.5324 163.224 22.663C163.056 22.7936 162.972 22.9507 162.972 23.1344L162.605 23.1313C162.605 22.8681 162.728 22.6405 162.972 22.4487C163.217 22.2548 163.518 22.1579 163.876 22.1579C164.245 22.1579 164.536 22.2508 164.748 22.4365C164.962 22.6201 165.072 22.8773 165.079 23.2079V24.7752C165.079 25.0956 165.112 25.3353 165.18 25.4945V25.5312H164.788ZM163.637 25.268C163.882 25.268 164.1 25.2088 164.292 25.0904C164.486 24.9721 164.627 24.8139 164.714 24.616V23.8874H164.059C163.694 23.8915 163.408 23.9589 163.202 24.0895C162.996 24.218 162.893 24.3956 162.893 24.6221C162.893 24.8078 162.961 24.9619 163.098 25.0843C163.237 25.2068 163.416 25.268 163.637 25.268ZM166.407 22.2191L166.419 22.7854C166.544 22.5814 166.699 22.4263 166.885 22.3201C167.07 22.212 167.275 22.1579 167.5 22.1579C167.855 22.1579 168.119 22.2579 168.293 22.4579C168.466 22.6579 168.554 22.9579 168.556 23.3579V25.5312H168.192V23.3548C168.19 23.0589 168.126 22.8385 168.002 22.6936C167.879 22.5487 167.683 22.4763 167.411 22.4763C167.185 22.4763 166.984 22.5477 166.808 22.6905C166.635 22.8313 166.506 23.0222 166.422 23.263V25.5312H166.058V22.2191H166.407ZM169.915 25.5312H169.548V22.2191H169.915V25.5312ZM169.483 21.261C169.483 21.1916 169.506 21.1334 169.551 21.0865C169.596 21.0375 169.657 21.013 169.735 21.013C169.812 21.013 169.873 21.0375 169.918 21.0865C169.965 21.1334 169.989 21.1916 169.989 21.261C169.989 21.3304 169.965 21.3885 169.918 21.4355C169.873 21.4824 169.812 21.5059 169.735 21.5059C169.657 21.5059 169.596 21.4824 169.551 21.4355C169.506 21.3885 169.483 21.3304 169.483 21.261ZM172.137 25.2833C172.393 25.2833 172.606 25.2119 172.777 25.069C172.951 24.9241 173.045 24.7374 173.059 24.5088H173.411C173.401 24.7109 173.337 24.8956 173.221 25.0629C173.105 25.2282 172.95 25.3578 172.756 25.4517C172.564 25.5455 172.358 25.5925 172.137 25.5925C171.703 25.5925 171.358 25.4415 171.103 25.1394C170.85 24.8374 170.723 24.4313 170.723 23.9211V23.8109C170.723 23.4844 170.78 23.1956 170.895 22.9446C171.009 22.6936 171.172 22.4997 171.384 22.363C171.599 22.2263 171.849 22.1579 172.134 22.1579C172.498 22.1579 172.797 22.2661 173.031 22.4824C173.268 22.6987 173.395 22.9834 173.411 23.3364H173.059C173.043 23.0773 172.949 22.8681 172.777 22.7089C172.608 22.5497 172.394 22.4701 172.134 22.4701C171.804 22.4701 171.547 22.5895 171.363 22.8283C171.181 23.0671 171.091 23.4017 171.091 23.8323V23.9395C171.091 24.3619 171.181 24.6915 171.363 24.9282C171.547 25.1649 171.805 25.2833 172.137 25.2833ZM158.659 32.5312C158.623 32.4272 158.599 32.2731 158.589 32.069C158.46 32.2364 158.296 32.3659 158.096 32.4578C157.898 32.5476 157.688 32.5925 157.466 32.5925C157.147 32.5925 156.889 32.5037 156.691 32.3262C156.495 32.1486 156.397 31.9241 156.397 31.6527C156.397 31.3303 156.531 31.0752 156.798 30.8874C157.068 30.6997 157.442 30.6058 157.922 30.6058H158.586V30.2293C158.586 29.9926 158.512 29.8069 158.366 29.6722C158.221 29.5354 158.008 29.4671 157.729 29.4671C157.474 29.4671 157.262 29.5324 157.095 29.663C156.928 29.7936 156.844 29.9507 156.844 30.1344L156.477 30.1313C156.477 29.8681 156.599 29.6405 156.844 29.4487C157.089 29.2548 157.39 29.1579 157.747 29.1579C158.117 29.1579 158.407 29.2508 158.62 29.4365C158.834 29.6201 158.944 29.8773 158.95 30.2079V31.7752C158.95 32.0956 158.984 32.3353 159.051 32.4945V32.5312H158.659ZM157.508 32.268C157.753 32.268 157.972 32.2088 158.163 32.0904C158.357 31.9721 158.498 31.8139 158.586 31.616V30.8874H157.931C157.566 30.8915 157.28 30.9589 157.074 31.0895C156.868 31.218 156.765 31.3956 156.765 31.6221C156.765 31.8078 156.833 31.9619 156.97 32.0843C157.108 32.2068 157.288 32.268 157.508 32.268ZM161.154 32.2833C161.409 32.2833 161.623 32.2119 161.794 32.069C161.967 31.9241 162.061 31.7374 162.076 31.5088H162.428C162.417 31.7109 162.354 31.8956 162.238 32.0629C162.122 32.2282 161.966 32.3578 161.773 32.4517C161.581 32.5455 161.375 32.5925 161.154 32.5925C160.72 32.5925 160.375 32.4415 160.12 32.1394C159.866 31.8374 159.74 31.4313 159.74 30.9211V30.8109C159.74 30.4844 159.797 30.1956 159.911 29.9446C160.026 29.6936 160.189 29.4997 160.401 29.363C160.615 29.2263 160.865 29.1579 161.151 29.1579C161.514 29.1579 161.813 29.2661 162.048 29.4824C162.285 29.6987 162.411 29.9834 162.428 30.3364H162.076C162.059 30.0773 161.965 29.8681 161.794 29.7089C161.625 29.5497 161.41 29.4701 161.151 29.4701C160.821 29.4701 160.563 29.5895 160.38 29.8283C160.198 30.0671 160.107 30.4017 160.107 30.8323V30.9395C160.107 31.3619 160.198 31.6915 160.38 31.9282C160.563 32.1649 160.822 32.2833 161.154 32.2833ZM163.572 32.5312H163.205V29.2191H163.572V32.5312ZM163.141 28.261C163.141 28.1916 163.163 28.1334 163.208 28.0865C163.253 28.0375 163.314 28.013 163.392 28.013C163.469 28.013 163.531 28.0375 163.576 28.0865C163.622 28.1334 163.646 28.1916 163.646 28.261C163.646 28.3304 163.622 28.3885 163.576 28.4355C163.531 28.4824 163.469 28.5059 163.392 28.5059C163.314 28.5059 163.253 28.4824 163.208 28.4355C163.163 28.3885 163.141 28.3304 163.141 28.261ZM164.423 30.8446C164.423 30.3303 164.538 29.9211 164.766 29.6171C164.997 29.311 165.309 29.1579 165.703 29.1579C166.15 29.1579 166.491 29.3344 166.725 29.6875V27.8294H167.09V32.5312H166.747L166.732 32.0904C166.497 32.4251 166.152 32.5925 165.697 32.5925C165.315 32.5925 165.007 32.4394 164.772 32.1333C164.54 31.8252 164.423 31.4099 164.423 30.8874V30.8446ZM164.794 30.9089C164.794 31.3313 164.879 31.665 165.048 31.9098C165.217 32.1527 165.456 32.2741 165.764 32.2741C166.215 32.2741 166.536 32.0751 166.725 31.6772V30.1222C166.536 29.6916 166.217 29.4763 165.77 29.4763C165.462 29.4763 165.222 29.5977 165.051 29.8405C164.88 30.0813 164.794 30.4374 164.794 30.9089ZM170.038 31.6894C170.038 31.5078 169.964 31.3619 169.817 31.2517C169.672 31.1415 169.453 31.0558 169.159 30.9946C168.865 30.9313 168.637 30.8599 168.473 30.7803C168.312 30.6987 168.192 30.5997 168.112 30.4834C168.035 30.367 167.996 30.2262 167.996 30.0609C167.996 29.7997 168.105 29.5844 168.323 29.415C168.542 29.2436 168.821 29.1579 169.162 29.1579C169.531 29.1579 169.827 29.2497 170.05 29.4334C170.274 29.615 170.387 29.8528 170.387 30.1466H170.019C170.019 29.9528 169.938 29.7915 169.774 29.663C169.613 29.5344 169.409 29.4701 169.162 29.4701C168.921 29.4701 168.727 29.5242 168.58 29.6324C168.436 29.7385 168.363 29.8773 168.363 30.0487C168.363 30.214 168.423 30.3426 168.544 30.4344C168.666 30.5242 168.888 30.6068 169.208 30.6823C169.53 30.7578 169.771 30.8385 169.93 30.9242C170.092 31.0099 170.211 31.1129 170.289 31.2333C170.366 31.3537 170.405 31.4997 170.405 31.6711C170.405 31.9507 170.292 32.1741 170.065 32.3415C169.841 32.5088 169.547 32.5925 169.184 32.5925C168.798 32.5925 168.485 32.4996 168.244 32.3139C168.005 32.1262 167.886 31.8894 167.886 31.6037H168.253C168.267 31.818 168.357 31.9854 168.522 32.1058C168.69 32.2241 168.91 32.2833 169.184 32.2833C169.439 32.2833 169.645 32.2272 169.802 32.1149C169.959 32.0027 170.038 31.8609 170.038 31.6894Z" fill="black"/>
<path d="M13.7536 193.132C13.874 192.934 14.0281 192.781 14.2158 192.673C14.4036 192.565 14.6087 192.51 14.8311 192.51C15.1862 192.51 15.4505 192.61 15.6239 192.81C15.7974 193.01 15.8852 193.31 15.8872 193.71V195.884H15.5229V193.707C15.5209 193.411 15.4576 193.191 15.3331 193.046C15.2107 192.901 15.0138 192.829 14.7423 192.829C14.5158 192.829 14.3148 192.9 14.1393 193.043C13.9658 193.184 13.8373 193.375 13.7536 193.616V195.884H13.3893V191.182H13.7536V193.132ZM18.1126 195.945C17.831 195.945 17.5759 195.876 17.3474 195.737C17.1208 195.598 16.9443 195.405 16.8178 195.158C16.6913 194.909 16.628 194.631 16.628 194.323V194.191C16.628 193.873 16.6892 193.586 16.8117 193.331C16.9361 193.076 17.1086 192.876 17.329 192.731C17.5494 192.584 17.7882 192.51 18.0453 192.51C18.4473 192.51 18.7657 192.648 19.0004 192.924C19.2371 193.197 19.3555 193.572 19.3555 194.047V194.252H16.9923V194.323C16.9923 194.698 17.0994 195.011 17.3137 195.262C17.53 195.511 17.8014 195.636 18.1279 195.636C18.3239 195.636 18.4963 195.6 18.6453 195.529C18.7963 195.457 18.933 195.343 19.0555 195.186L19.285 195.36C19.0157 195.75 18.6249 195.945 18.1126 195.945ZM18.0453 192.823C17.7698 192.823 17.5371 192.924 17.3474 193.126C17.1596 193.328 17.0453 193.599 17.0045 193.94H18.9912V193.9C18.981 193.582 18.8902 193.323 18.7187 193.123C18.5473 192.923 18.3228 192.823 18.0453 192.823ZM20.6381 191.724V192.572H21.3238V192.872H20.6381V195.079C20.6381 195.262 20.6707 195.399 20.736 195.489C20.8034 195.579 20.9146 195.624 21.0697 195.624C21.1309 195.624 21.2299 195.613 21.3666 195.593L21.3819 195.893C21.286 195.928 21.1554 195.945 20.9901 195.945C20.7391 195.945 20.5564 195.873 20.4421 195.728C20.3279 195.581 20.2707 195.365 20.2707 195.082V192.872H19.6616V192.572H20.2707V191.724H20.6381ZM23.3655 195.945C23.0839 195.945 22.8288 195.876 22.6002 195.737C22.3737 195.598 22.1972 195.405 22.0707 195.158C21.9441 194.909 21.8809 194.631 21.8809 194.323V194.191C21.8809 193.873 21.9421 193.586 22.0645 193.331C22.189 193.076 22.3615 192.876 22.5819 192.731C22.8023 192.584 23.041 192.51 23.2982 192.51C23.7002 192.51 24.0186 192.648 24.2532 192.924C24.49 193.197 24.6083 193.572 24.6083 194.047V194.252H22.2451V194.323C22.2451 194.698 22.3523 195.011 22.5666 195.262C22.7829 195.511 23.0543 195.636 23.3808 195.636C23.5767 195.636 23.7492 195.6 23.8982 195.529C24.0492 195.457 24.1859 195.343 24.3083 195.186L24.5379 195.36C24.2685 195.75 23.8777 195.945 23.3655 195.945ZM23.2982 192.823C23.0227 192.823 22.79 192.924 22.6002 193.126C22.4125 193.328 22.2982 193.599 22.2574 193.94H24.2441V193.9C24.2339 193.582 24.143 193.323 23.9716 193.123C23.8002 192.923 23.5757 192.823 23.2982 192.823ZM26.8521 192.884C26.7746 192.87 26.6919 192.862 26.6042 192.862C26.3756 192.862 26.1817 192.927 26.0226 193.055C25.8654 193.182 25.7532 193.367 25.6858 193.609V195.884H25.3216V192.572H25.6797L25.6858 193.098C25.8797 192.706 26.1909 192.51 26.6195 192.51C26.7215 192.51 26.8021 192.524 26.8613 192.55L26.8521 192.884ZM27.1705 194.179C27.1705 193.86 27.2317 193.574 27.3542 193.319C27.4786 193.063 27.6531 192.866 27.8776 192.725C28.1041 192.582 28.3602 192.51 28.6459 192.51C29.0867 192.51 29.4439 192.666 29.7173 192.976C29.9908 193.284 30.1275 193.693 30.1275 194.203V194.28C30.1275 194.6 30.0653 194.889 29.9408 195.146C29.8184 195.401 29.6449 195.598 29.4204 195.737C29.1959 195.876 28.9398 195.945 28.6521 195.945C28.2133 195.945 27.8562 195.791 27.5807 195.483C27.3072 195.173 27.1705 194.762 27.1705 194.252V194.179ZM27.5378 194.28C27.5378 194.676 27.6399 195.001 27.8439 195.256C28.05 195.509 28.3194 195.636 28.6521 195.636C28.9827 195.636 29.25 195.509 29.4541 195.256C29.6602 195.001 29.7633 194.665 29.7633 194.249V194.179C29.7633 193.926 29.7163 193.694 29.6224 193.484C29.5286 193.274 29.3969 193.111 29.2276 192.997C29.0582 192.881 28.8643 192.823 28.6459 192.823C28.3194 192.823 28.0531 192.951 27.847 193.208C27.6409 193.463 27.5378 193.798 27.5378 194.212V194.28ZM32.1111 195.636C32.3662 195.636 32.5795 195.564 32.7509 195.422C32.9244 195.277 33.0182 195.09 33.0325 194.861H33.3846C33.3744 195.063 33.3111 195.248 33.1948 195.415C33.0784 195.581 32.9233 195.71 32.7295 195.804C32.5376 195.898 32.3315 195.945 32.1111 195.945C31.6765 195.945 31.3316 195.794 31.0765 195.492C30.8234 195.19 30.6969 194.784 30.6969 194.274V194.163C30.6969 193.837 30.754 193.548 30.8683 193.297C30.9826 193.046 31.1459 192.852 31.3581 192.716C31.5724 192.579 31.8224 192.51 32.1081 192.51C32.4713 192.51 32.7703 192.619 33.005 192.835C33.2417 193.051 33.3682 193.336 33.3846 193.689H33.0325C33.0162 193.43 32.9223 193.221 32.7509 193.061C32.5815 192.902 32.3672 192.823 32.1081 192.823C31.7775 192.823 31.5203 192.942 31.3367 193.181C31.155 193.42 31.0642 193.754 31.0642 194.185V194.292C31.0642 194.714 31.155 195.044 31.3367 195.281C31.5203 195.517 31.7785 195.636 32.1111 195.636ZM35.1692 195.357L36.1365 192.572H36.5314L35.1171 196.447L35.0437 196.618C34.8621 197.02 34.5814 197.221 34.2019 197.221C34.1141 197.221 34.0202 197.207 33.9202 197.179L33.9172 196.876L34.107 196.894C34.2866 196.894 34.4315 196.849 34.5417 196.759C34.6539 196.672 34.7488 196.519 34.8263 196.303L34.9886 195.856L33.7396 192.572H34.1406L35.1692 195.357ZM38.2823 195.636C38.5374 195.636 38.7507 195.564 38.9221 195.422C39.0956 195.277 39.1895 195.09 39.2037 194.861H39.5558C39.5456 195.063 39.4823 195.248 39.366 195.415C39.2497 195.581 39.0946 195.71 38.9007 195.804C38.7089 195.898 38.5027 195.945 38.2823 195.945C37.8477 195.945 37.5028 195.794 37.2477 195.492C36.9946 195.19 36.8681 194.784 36.8681 194.274V194.163C36.8681 193.837 36.9252 193.548 37.0395 193.297C37.1538 193.046 37.3171 192.852 37.5293 192.716C37.7436 192.579 37.9936 192.51 38.2793 192.51C38.6425 192.51 38.9415 192.619 39.1762 192.835C39.4129 193.051 39.5394 193.336 39.5558 193.689H39.2037C39.1874 193.43 39.0935 193.221 38.9221 193.061C38.7527 192.902 38.5385 192.823 38.2793 192.823C37.9487 192.823 37.6915 192.942 37.5079 193.181C37.3263 193.42 37.2354 193.754 37.2354 194.185V194.292C37.2354 194.714 37.3263 195.044 37.5079 195.281C37.6915 195.517 37.9497 195.636 38.2823 195.636ZM40.7006 195.884H40.3333V191.182H40.7006V195.884ZM42.1087 195.884H41.7414V192.572H42.1087V195.884ZM41.6771 191.614C41.6771 191.544 41.6996 191.486 41.7445 191.439C41.7894 191.39 41.8506 191.366 41.9281 191.366C42.0057 191.366 42.0669 191.39 42.1118 191.439C42.1587 191.486 42.1822 191.544 42.1822 191.614C42.1822 191.683 42.1587 191.741 42.1118 191.788C42.0669 191.835 42.0057 191.858 41.9281 191.858C41.8506 191.858 41.7894 191.835 41.7445 191.788C41.6996 191.741 41.6771 191.683 41.6771 191.614ZM44.3311 195.636C44.5862 195.636 44.7995 195.564 44.9709 195.422C45.1443 195.277 45.2382 195.09 45.2525 194.861H45.6045C45.5943 195.063 45.5311 195.248 45.4147 195.415C45.2984 195.581 45.1433 195.71 44.9495 195.804C44.7576 195.898 44.5515 195.945 44.3311 195.945C43.8964 195.945 43.5515 195.794 43.2965 195.492C43.0434 195.19 42.9169 194.784 42.9169 194.274V194.163C42.9169 193.837 42.974 193.548 43.0883 193.297C43.2026 193.046 43.3658 192.852 43.5781 192.716C43.7924 192.579 44.0423 192.51 44.328 192.51C44.6913 192.51 44.9903 192.619 45.225 192.835C45.4617 193.051 45.5882 193.336 45.6045 193.689H45.2525C45.2362 193.43 45.1423 193.221 44.9709 193.061C44.8015 192.902 44.5872 192.823 44.328 192.823C43.9974 192.823 43.7403 192.942 43.5566 193.181C43.375 193.42 43.2842 193.754 43.2842 194.185V194.292C43.2842 194.714 43.375 195.044 43.5566 195.281C43.7403 195.517 43.9985 195.636 44.3311 195.636ZM14.6628 202.636C14.9179 202.636 15.1311 202.564 15.3025 202.422C15.476 202.277 15.5699 202.09 15.5842 201.861H15.9362C15.926 202.063 15.8627 202.248 15.7464 202.415C15.6301 202.581 15.475 202.71 15.2811 202.804C15.0893 202.898 14.8832 202.945 14.6628 202.945C14.2281 202.945 13.8832 202.794 13.6281 202.492C13.375 202.19 13.2485 201.784 13.2485 201.274V201.163C13.2485 200.837 13.3057 200.548 13.4199 200.297C13.5342 200.046 13.6975 199.852 13.9097 199.716C14.124 199.579 14.374 199.51 14.6597 199.51C15.0229 199.51 15.3219 199.619 15.5566 199.835C15.7933 200.051 15.9199 200.336 15.9362 200.689H15.5842C15.5678 200.43 15.474 200.221 15.3025 200.061C15.1331 199.902 14.9189 199.823 14.6597 199.823C14.3291 199.823 14.072 199.942 13.8883 200.181C13.7067 200.42 13.6159 200.754 13.6159 201.185V201.292C13.6159 201.714 13.7067 202.044 13.8883 202.281C14.072 202.517 14.3301 202.636 14.6628 202.636ZM16.4688 201.179C16.4688 200.86 16.53 200.574 16.6525 200.319C16.777 200.063 16.9515 199.866 17.1759 199.725C17.4025 199.582 17.6586 199.51 17.9443 199.51C18.3851 199.51 18.7422 199.666 19.0157 199.976C19.2891 200.284 19.4259 200.693 19.4259 201.203V201.28C19.4259 201.6 19.3636 201.889 19.2391 202.146C19.1167 202.401 18.9432 202.598 18.7187 202.737C18.4943 202.876 18.2381 202.945 17.9504 202.945C17.5116 202.945 17.1545 202.791 16.879 202.483C16.6055 202.173 16.4688 201.762 16.4688 201.252V201.179ZM16.8362 201.28C16.8362 201.676 16.9382 202.001 17.1423 202.256C17.3484 202.509 17.6178 202.636 17.9504 202.636C18.281 202.636 18.5483 202.509 18.7524 202.256C18.9585 202.001 19.0616 201.665 19.0616 201.249V201.179C19.0616 200.926 19.0146 200.694 18.9208 200.484C18.8269 200.274 18.6953 200.111 18.5259 199.997C18.3565 199.881 18.1626 199.823 17.9443 199.823C17.6178 199.823 17.3514 199.951 17.1453 200.208C16.9392 200.463 16.8362 200.798 16.8362 201.212V201.28ZM20.5187 199.572L20.5309 200.11C20.6534 199.91 20.8064 199.76 20.9901 199.66C21.1738 199.56 21.3778 199.51 21.6023 199.51C22.1247 199.51 22.4564 199.725 22.5972 200.153C22.7155 199.947 22.8737 199.789 23.0716 199.679C23.2696 199.567 23.488 199.51 23.7267 199.51C24.4369 199.51 24.7991 199.898 24.8134 200.674V202.884H24.4461V200.701C24.444 200.405 24.3798 200.186 24.2532 200.043C24.1288 199.9 23.9247 199.829 23.641 199.829C23.3778 199.833 23.1553 199.919 22.9737 200.086C22.7921 200.251 22.691 200.453 22.6706 200.692V202.884H22.3033V200.674C22.3013 200.39 22.2339 200.179 22.1013 200.04C21.9707 199.899 21.7686 199.829 21.4952 199.829C21.2646 199.829 21.0666 199.895 20.9013 200.028C20.736 200.158 20.6136 200.353 20.534 200.612V202.884H20.1666V199.572H20.5187ZM28.4072 201.261C28.4072 201.778 28.2929 202.188 28.0643 202.492C27.8358 202.794 27.5297 202.945 27.146 202.945C26.6929 202.945 26.346 202.786 26.1052 202.467V204.157H25.7409V199.572H26.0807L26.0991 200.04C26.3379 199.687 26.6838 199.51 27.1368 199.51C27.5327 199.51 27.8429 199.66 28.0674 199.96C28.2939 200.26 28.4072 200.677 28.4072 201.209V201.261ZM28.0398 201.197C28.0398 200.775 27.9531 200.441 27.7796 200.196C27.6062 199.951 27.3644 199.829 27.0542 199.829C26.8297 199.829 26.6368 199.883 26.4756 199.991C26.3144 200.099 26.1909 200.256 26.1052 200.462V202.051C26.193 202.241 26.3185 202.386 26.4817 202.486C26.645 202.586 26.8378 202.636 27.0603 202.636C27.3684 202.636 27.6082 202.513 27.7796 202.269C27.9531 202.022 28.0398 201.664 28.0398 201.197ZM29.0194 201.179C29.0194 200.86 29.0806 200.574 29.2031 200.319C29.3276 200.063 29.502 199.866 29.7265 199.725C29.953 199.582 30.2092 199.51 30.4949 199.51C30.9357 199.51 31.2928 199.666 31.5662 199.976C31.8397 200.284 31.9764 200.693 31.9764 201.203V201.28C31.9764 201.6 31.9142 201.889 31.7897 202.146C31.6673 202.401 31.4938 202.598 31.2693 202.737C31.0448 202.876 30.7887 202.945 30.501 202.945C30.0622 202.945 29.7051 202.791 29.4296 202.483C29.1561 202.173 29.0194 201.762 29.0194 201.252V201.179ZM29.3867 201.28C29.3867 201.676 29.4888 202.001 29.6928 202.256C29.899 202.509 30.1683 202.636 30.501 202.636C30.8316 202.636 31.0989 202.509 31.303 202.256C31.5091 202.001 31.6122 201.665 31.6122 201.249V201.179C31.6122 200.926 31.5652 200.694 31.4714 200.484C31.3775 200.274 31.2459 200.111 31.0765 199.997C30.9071 199.881 30.7132 199.823 30.4949 199.823C30.1683 199.823 29.902 199.951 29.6959 200.208C29.4898 200.463 29.3867 200.798 29.3867 201.212V201.28ZM34.8661 202.464C34.6457 202.785 34.2937 202.945 33.8101 202.945C33.457 202.945 33.1886 202.843 33.005 202.639C32.8213 202.433 32.7274 202.129 32.7234 201.727V199.572H33.0876V201.681C33.0876 202.311 33.3427 202.627 33.8529 202.627C34.3835 202.627 34.7192 202.407 34.86 201.969V199.572H35.2273V202.884H34.8723L34.8661 202.464ZM36.5314 199.572L36.5436 200.138C36.6681 199.934 36.8232 199.779 37.0089 199.673C37.1946 199.565 37.3997 199.51 37.6242 199.51C37.9793 199.51 38.2436 199.61 38.417 199.81C38.5905 200.01 38.6782 200.31 38.6803 200.71V202.884H38.316V200.707C38.314 200.411 38.2507 200.191 38.1262 200.046C38.0038 199.901 37.8068 199.829 37.5354 199.829C37.3089 199.829 37.1079 199.9 36.9324 200.043C36.7589 200.184 36.6304 200.375 36.5467 200.616V202.884H36.1824V199.572H36.5314ZM39.4823 201.197C39.4823 200.683 39.5966 200.274 39.8251 199.97C40.0557 199.663 40.368 199.51 40.7618 199.51C41.2088 199.51 41.5496 199.687 41.7843 200.04V198.182H42.1485V202.884H41.8057L41.7904 202.443C41.5557 202.778 41.2108 202.945 40.7557 202.945C40.3741 202.945 40.066 202.792 39.8313 202.486C39.5986 202.178 39.4823 201.762 39.4823 201.24V201.197ZM39.8527 201.261C39.8527 201.684 39.9374 202.017 40.1068 202.262C40.2761 202.505 40.5149 202.627 40.8231 202.627C41.2741 202.627 41.5945 202.428 41.7843 202.03V200.475C41.5945 200.044 41.2761 199.829 40.8292 199.829C40.521 199.829 40.2813 199.95 40.1098 200.193C39.9384 200.434 39.8527 200.79 39.8527 201.261ZM45.0964 202.042C45.0964 201.86 45.0229 201.714 44.876 201.604C44.7311 201.494 44.5117 201.408 44.2179 201.347C43.924 201.284 43.6954 201.212 43.5322 201.133C43.3709 201.051 43.2505 200.952 43.1709 200.836C43.0934 200.72 43.0546 200.579 43.0546 200.413C43.0546 200.152 43.1638 199.937 43.3822 199.768C43.6005 199.596 43.8801 199.51 44.2209 199.51C44.5903 199.51 44.8862 199.602 45.1086 199.786C45.3331 199.968 45.4454 200.205 45.4454 200.499H45.078C45.078 200.305 44.9964 200.144 44.8331 200.016C44.6719 199.887 44.4678 199.823 44.2209 199.823C43.9801 199.823 43.7862 199.877 43.6393 199.985C43.4944 200.091 43.422 200.23 43.422 200.401C43.422 200.567 43.4822 200.695 43.6026 200.787C43.725 200.877 43.9464 200.959 44.2668 201.035C44.5893 201.11 44.8301 201.191 44.9893 201.277C45.1505 201.362 45.2699 201.465 45.3474 201.586C45.425 201.706 45.4637 201.852 45.4637 202.024C45.4637 202.303 45.3505 202.527 45.1239 202.694C44.8995 202.861 44.6056 202.945 44.2423 202.945C43.8566 202.945 43.5434 202.852 43.3026 202.666C43.0638 202.479 42.9444 202.242 42.9444 201.956H43.3118C43.326 202.171 43.4158 202.338 43.5811 202.458C43.7485 202.577 43.9689 202.636 44.2423 202.636C44.4974 202.636 44.7035 202.58 44.8607 202.467C45.0178 202.355 45.0964 202.213 45.0964 202.042Z" fill="black"/>
<path d="M301.046 361.98C301.015 361.892 300.995 361.761 300.986 361.587C300.877 361.729 300.737 361.84 300.566 361.918C300.398 361.994 300.218 362.033 300.029 362.033C299.758 362.033 299.538 361.957 299.369 361.806C299.202 361.654 299.119 361.463 299.119 361.232C299.119 360.957 299.233 360.74 299.46 360.58C299.69 360.42 300.009 360.34 300.418 360.34H300.984V360.019C300.984 359.817 300.921 359.659 300.796 359.544C300.672 359.428 300.491 359.37 300.253 359.37C300.036 359.37 299.856 359.425 299.713 359.537C299.571 359.648 299.499 359.782 299.499 359.938L299.186 359.936C299.186 359.711 299.291 359.517 299.499 359.354C299.708 359.189 299.965 359.106 300.269 359.106C300.584 359.106 300.831 359.185 301.012 359.343C301.195 359.5 301.289 359.719 301.294 360.001V361.336C301.294 361.609 301.323 361.814 301.38 361.949V361.98H301.046ZM300.065 361.756C300.274 361.756 300.46 361.706 300.624 361.605C300.789 361.504 300.909 361.369 300.984 361.201V360.58H300.425C300.114 360.583 299.871 360.641 299.695 360.752C299.519 360.862 299.432 361.013 299.432 361.206C299.432 361.364 299.49 361.495 299.606 361.6C299.725 361.704 299.878 361.756 300.065 361.756ZM302.413 359.158L302.423 359.617C302.528 359.447 302.658 359.319 302.815 359.234C302.971 359.149 303.145 359.106 303.336 359.106C303.781 359.106 304.064 359.289 304.184 359.654C304.285 359.478 304.42 359.343 304.588 359.25C304.757 359.154 304.943 359.106 305.146 359.106C305.752 359.106 306.06 359.437 306.072 360.097V361.98H305.759V360.121C305.758 359.869 305.703 359.682 305.595 359.56C305.489 359.438 305.315 359.377 305.073 359.377C304.849 359.381 304.66 359.454 304.505 359.596C304.35 359.737 304.264 359.909 304.247 360.113V361.98H303.934V360.097C303.932 359.856 303.874 359.676 303.761 359.557C303.65 359.437 303.478 359.377 303.245 359.377C303.048 359.377 302.88 359.434 302.739 359.547C302.598 359.658 302.494 359.824 302.426 360.045V361.98H302.113V359.158H302.413ZM307.215 361.98H306.902V359.158H307.215V361.98ZM306.847 358.342C306.847 358.283 306.866 358.233 306.904 358.193C306.943 358.151 306.995 358.131 307.061 358.131C307.127 358.131 307.179 358.151 307.217 358.193C307.257 358.233 307.277 358.283 307.277 358.342C307.277 358.401 307.257 358.451 307.217 358.491C307.179 358.531 307.127 358.551 307.061 358.551C306.995 358.551 306.943 358.531 306.904 358.491C306.866 358.451 306.847 358.401 306.847 358.342ZM308.362 359.158L308.373 359.641C308.479 359.467 308.611 359.335 308.769 359.244C308.928 359.152 309.102 359.106 309.294 359.106C309.596 359.106 309.821 359.191 309.969 359.362C310.117 359.532 310.192 359.788 310.193 360.129V361.98H309.883V360.126C309.881 359.874 309.827 359.686 309.721 359.563C309.617 359.439 309.449 359.377 309.218 359.377C309.025 359.377 308.854 359.438 308.704 359.56C308.556 359.68 308.447 359.843 308.375 360.048V361.98H308.065V359.158H308.362ZM312.095 362.033C311.855 362.033 311.638 361.974 311.443 361.855C311.25 361.737 311.099 361.573 310.992 361.362C310.884 361.15 310.83 360.913 310.83 360.65V360.538C310.83 360.267 310.882 360.023 310.986 359.805C311.092 359.588 311.239 359.417 311.427 359.294C311.615 359.169 311.818 359.106 312.037 359.106C312.38 359.106 312.651 359.224 312.851 359.458C313.053 359.691 313.154 360.01 313.154 360.415V360.59H311.14V360.65C311.14 360.97 311.232 361.237 311.414 361.451C311.598 361.663 311.83 361.769 312.108 361.769C312.275 361.769 312.422 361.739 312.549 361.678C312.677 361.617 312.794 361.52 312.898 361.386L313.094 361.534C312.864 361.867 312.531 362.033 312.095 362.033ZM312.037 359.372C311.803 359.372 311.605 359.458 311.443 359.63C311.283 359.803 311.185 360.034 311.151 360.324H312.843V360.29C312.835 360.019 312.757 359.798 312.611 359.628C312.465 359.457 312.274 359.372 312.037 359.372ZM315.452 361.263C315.452 361.108 315.389 360.984 315.264 360.89C315.14 360.796 314.954 360.723 314.703 360.671C314.453 360.617 314.258 360.556 314.119 360.489C313.982 360.419 313.879 360.335 313.811 360.236C313.745 360.136 313.712 360.016 313.712 359.876C313.712 359.653 313.805 359.47 313.991 359.325C314.177 359.179 314.415 359.106 314.706 359.106C315.021 359.106 315.273 359.184 315.462 359.341C315.653 359.496 315.749 359.698 315.749 359.949H315.436C315.436 359.783 315.367 359.646 315.227 359.537C315.09 359.427 314.916 359.372 314.706 359.372C314.501 359.372 314.335 359.418 314.21 359.51C314.087 359.601 314.025 359.719 314.025 359.865C314.025 360.006 314.076 360.116 314.179 360.194C314.283 360.27 314.472 360.341 314.745 360.405C315.02 360.469 315.225 360.538 315.36 360.611C315.498 360.684 315.6 360.772 315.666 360.875C315.732 360.977 315.765 361.101 315.765 361.248C315.765 361.486 315.668 361.676 315.475 361.819C315.284 361.961 315.034 362.033 314.724 362.033C314.395 362.033 314.128 361.954 313.923 361.795C313.72 361.635 313.618 361.434 313.618 361.19H313.931C313.943 361.373 314.02 361.515 314.161 361.618C314.303 361.719 314.491 361.769 314.724 361.769C314.941 361.769 315.117 361.721 315.251 361.626C315.385 361.53 315.452 361.409 315.452 361.263ZM319.549 361.98C319.518 361.892 319.498 361.761 319.489 361.587C319.38 361.729 319.24 361.84 319.069 361.918C318.901 361.994 318.722 362.033 318.532 362.033C318.261 362.033 318.041 361.957 317.872 361.806C317.705 361.654 317.622 361.463 317.622 361.232C317.622 360.957 317.736 360.74 317.964 360.58C318.193 360.42 318.512 360.34 318.921 360.34H319.487V360.019C319.487 359.817 319.424 359.659 319.299 359.544C319.176 359.428 318.995 359.37 318.756 359.37C318.539 359.37 318.359 359.425 318.217 359.537C318.074 359.648 318.003 359.782 318.003 359.938L317.69 359.936C317.69 359.711 317.794 359.517 318.003 359.354C318.211 359.189 318.468 359.106 318.772 359.106C319.087 359.106 319.335 359.185 319.515 359.343C319.698 359.5 319.792 359.719 319.797 360.001V361.336C319.797 361.609 319.826 361.814 319.883 361.949V361.98H319.549ZM318.569 361.756C318.777 361.756 318.963 361.706 319.127 361.605C319.292 361.504 319.412 361.369 319.487 361.201V360.58H318.929C318.617 360.583 318.374 360.641 318.198 360.752C318.023 360.862 317.935 361.013 317.935 361.206C317.935 361.364 317.993 361.495 318.11 361.6C318.228 361.704 318.381 361.756 318.569 361.756ZM320.929 359.158L320.94 359.641C321.046 359.467 321.178 359.335 321.336 359.244C321.494 359.152 321.669 359.106 321.86 359.106C322.163 359.106 322.388 359.191 322.536 359.362C322.684 359.532 322.758 359.788 322.76 360.129V361.98H322.45V360.126C322.448 359.874 322.394 359.686 322.288 359.563C322.184 359.439 322.016 359.377 321.785 359.377C321.592 359.377 321.42 359.438 321.271 359.56C321.123 359.68 321.013 359.843 320.942 360.048V361.98H320.632V359.158H320.929ZM323.444 360.543C323.444 360.105 323.541 359.756 323.736 359.497C323.932 359.237 324.198 359.106 324.534 359.106C324.915 359.106 325.205 359.257 325.405 359.557V357.974H325.715V361.98H325.423L325.41 361.605C325.21 361.89 324.916 362.033 324.529 362.033C324.203 362.033 323.941 361.902 323.741 361.641C323.543 361.379 323.444 361.025 323.444 360.58V360.543ZM323.759 360.598C323.759 360.958 323.831 361.242 323.976 361.451C324.12 361.658 324.323 361.761 324.586 361.761C324.97 361.761 325.243 361.592 325.405 361.253V359.928C325.243 359.561 324.972 359.377 324.591 359.377C324.329 359.377 324.124 359.481 323.978 359.688C323.832 359.893 323.759 360.196 323.759 360.598ZM305.924 366.598C305.924 367.038 305.826 367.388 305.632 367.647C305.437 367.904 305.176 368.033 304.849 368.033C304.463 368.033 304.167 367.897 303.962 367.626V369.066H303.652V365.158H303.941L303.957 365.557C304.16 365.257 304.455 365.106 304.841 365.106C305.179 365.106 305.443 365.234 305.634 365.49C305.827 365.745 305.924 366.1 305.924 366.554V366.598ZM305.611 366.543C305.611 366.183 305.537 365.899 305.389 365.69C305.241 365.482 305.035 365.377 304.771 365.377C304.58 365.377 304.415 365.423 304.278 365.516C304.14 365.608 304.035 365.742 303.962 365.917V367.271C304.037 367.433 304.144 367.556 304.283 367.641C304.422 367.727 304.586 367.769 304.776 367.769C305.039 367.769 305.243 367.665 305.389 367.456C305.537 367.246 305.611 366.942 305.611 366.543ZM306.928 365.636C307.03 365.467 307.162 365.337 307.322 365.244C307.482 365.152 307.656 365.106 307.846 365.106C308.149 365.106 308.374 365.191 308.522 365.362C308.669 365.532 308.744 365.788 308.746 366.129V367.98H308.435V366.126C308.434 365.874 308.38 365.686 308.274 365.563C308.169 365.439 308.002 365.377 307.77 365.377C307.577 365.377 307.406 365.438 307.256 365.56C307.109 365.68 306.999 365.843 306.928 366.048V367.98H306.617V363.974H306.928V365.636ZM310.642 368.033C310.402 368.033 310.185 367.974 309.99 367.855C309.797 367.737 309.647 367.573 309.539 367.362C309.431 367.15 309.377 366.913 309.377 366.65V366.538C309.377 366.267 309.429 366.023 309.534 365.805C309.64 365.588 309.787 365.417 309.974 365.294C310.162 365.169 310.366 365.106 310.585 365.106C310.927 365.106 311.198 365.224 311.398 365.458C311.6 365.691 311.701 366.01 311.701 366.415V366.59H309.687V366.65C309.687 366.97 309.779 367.237 309.961 367.451C310.146 367.663 310.377 367.769 310.655 367.769C310.822 367.769 310.969 367.739 311.096 367.678C311.225 367.617 311.341 367.52 311.445 367.386L311.641 367.534C311.412 367.867 311.079 368.033 310.642 368.033ZM310.585 365.372C310.35 365.372 310.152 365.458 309.99 365.63C309.83 365.803 309.733 366.034 309.698 366.324H311.391V366.29C311.382 366.019 311.305 365.798 311.158 365.628C311.012 365.457 310.821 365.372 310.585 365.372ZM312.606 365.158L312.617 365.641C312.723 365.467 312.855 365.335 313.013 365.244C313.171 365.152 313.346 365.106 313.537 365.106C313.84 365.106 314.065 365.191 314.213 365.362C314.361 365.532 314.435 365.788 314.437 366.129V367.98H314.127V366.126C314.125 365.874 314.071 365.686 313.965 365.563C313.861 365.439 313.693 365.377 313.462 365.377C313.269 365.377 313.097 365.438 312.948 365.56C312.8 365.68 312.69 365.843 312.619 366.048V367.98H312.309V365.158H312.606ZM315.074 366.528C315.074 366.256 315.126 366.012 315.23 365.795C315.336 365.577 315.485 365.409 315.676 365.289C315.869 365.167 316.087 365.106 316.331 365.106C316.706 365.106 317.011 365.238 317.244 365.503C317.477 365.765 317.593 366.114 317.593 366.549V366.614C317.593 366.887 317.54 367.133 317.434 367.352C317.33 367.569 317.182 367.737 316.991 367.855C316.799 367.974 316.581 368.033 316.336 368.033C315.962 368.033 315.658 367.901 315.423 367.639C315.19 367.374 315.074 367.025 315.074 366.59V366.528ZM315.387 366.614C315.387 366.951 315.473 367.228 315.647 367.446C315.823 367.661 316.053 367.769 316.336 367.769C316.618 367.769 316.845 367.661 317.019 367.446C317.195 367.228 317.283 366.942 317.283 366.588V366.528C317.283 366.312 317.243 366.115 317.163 365.936C317.083 365.756 316.971 365.618 316.826 365.521C316.682 365.422 316.517 365.372 316.331 365.372C316.053 365.372 315.826 365.482 315.65 365.701C315.474 365.918 315.387 366.203 315.387 366.556V366.614ZM318.59 367.98H318.277V363.974H318.59V367.98ZM321.13 367.263C321.13 367.108 321.067 366.984 320.942 366.89C320.819 366.796 320.632 366.723 320.381 366.671C320.131 366.617 319.936 366.556 319.797 366.489C319.66 366.419 319.557 366.335 319.489 366.236C319.423 366.136 319.39 366.016 319.39 365.876C319.39 365.653 319.483 365.47 319.669 365.325C319.855 365.179 320.094 365.106 320.384 365.106C320.699 365.106 320.951 365.184 321.14 365.341C321.332 365.496 321.427 365.698 321.427 365.949H321.114C321.114 365.783 321.045 365.646 320.906 365.537C320.768 365.427 320.594 365.372 320.384 365.372C320.179 365.372 320.014 365.418 319.888 365.51C319.765 365.601 319.703 365.719 319.703 365.865C319.703 366.006 319.755 366.116 319.857 366.194C319.961 366.27 320.15 366.341 320.423 366.405C320.698 366.469 320.903 366.538 321.039 366.611C321.176 366.684 321.278 366.772 321.344 366.875C321.41 366.977 321.443 367.101 321.443 367.248C321.443 367.486 321.346 367.676 321.153 367.819C320.962 367.961 320.712 368.033 320.402 368.033C320.074 368.033 319.807 367.954 319.602 367.795C319.398 367.635 319.296 367.434 319.296 367.19H319.609C319.622 367.373 319.698 367.515 319.839 367.618C319.981 367.719 320.169 367.769 320.402 367.769C320.62 367.769 320.795 367.721 320.929 367.626C321.063 367.53 321.13 367.409 321.13 367.263Z" fill="black"/>
<path d="M89.175 334.366C89.175 334.072 89.2316 333.807 89.3446 333.572C89.4595 333.336 89.6206 333.153 89.8278 333.023C90.0369 332.892 90.2733 332.826 90.537 332.826C90.9439 332.826 91.2736 332.969 91.526 333.255C91.7784 333.54 91.9046 333.917 91.9046 334.388V334.459C91.9046 334.755 91.8472 335.021 91.7323 335.258C91.6192 335.494 91.4591 335.676 91.2519 335.804C91.0447 335.932 90.8083 335.996 90.5427 335.996C90.1376 335.996 89.808 335.854 89.5537 335.569C89.3013 335.283 89.175 334.904 89.175 334.433V334.366ZM89.5141 334.459C89.5141 334.824 89.6083 335.125 89.7967 335.36C89.9869 335.594 90.2356 335.711 90.5427 335.711C90.8478 335.711 91.0946 335.594 91.283 335.36C91.4732 335.125 91.5684 334.815 91.5684 334.431V334.366C91.5684 334.132 91.525 333.918 91.4384 333.724C91.3517 333.53 91.2302 333.38 91.0739 333.275C90.9175 333.167 90.7386 333.114 90.537 333.114C90.2356 333.114 89.9898 333.232 89.7995 333.47C89.6093 333.705 89.5141 334.014 89.5141 334.397V334.459ZM94.0182 333.17C93.9466 333.157 93.8703 333.151 93.7893 333.151C93.5783 333.151 93.3994 333.21 93.2525 333.329C93.1074 333.445 93.0038 333.616 92.9416 333.84V335.939H92.6054V332.882H92.936L92.9416 333.368C93.1206 333.006 93.4079 332.826 93.8035 332.826C93.8976 332.826 93.972 332.838 94.0267 332.862L94.0182 333.17ZM94.3629 334.383C94.3629 333.904 94.4684 333.525 94.6794 333.247C94.8923 332.966 95.1805 332.826 95.5441 332.826C95.9604 332.826 96.2768 332.991 96.4935 333.323L96.5104 332.882H96.8269V335.877C96.8269 336.271 96.7167 336.583 96.4963 336.813C96.2759 337.042 95.9773 337.157 95.6006 337.157C95.3877 337.157 95.1843 337.109 94.9902 337.013C94.7981 336.919 94.6464 336.793 94.5353 336.635L94.7246 336.431C94.9639 336.725 95.2483 336.872 95.578 336.872C95.8605 336.872 96.0809 336.788 96.2392 336.62C96.3974 336.455 96.4793 336.224 96.485 335.928V335.544C96.2684 335.845 95.9528 335.996 95.5384 335.996C95.1843 335.996 94.8998 335.855 94.6851 335.572C94.4703 335.29 94.3629 334.908 94.3629 334.428V334.383ZM94.7048 334.442C94.7048 334.832 94.783 335.14 94.9394 335.366C95.0957 335.59 95.3161 335.702 95.6006 335.702C96.0169 335.702 96.3117 335.516 96.485 335.143V333.721C96.4059 333.525 96.2919 333.377 96.1431 333.275C95.9943 333.171 95.8153 333.119 95.6062 333.119C95.3218 333.119 95.1004 333.232 94.9422 333.456C94.784 333.678 94.7048 334.007 94.7048 334.442ZM99.6384 335.939C99.6045 335.843 99.5828 335.701 99.5734 335.513C99.4547 335.667 99.3031 335.787 99.1185 335.872C98.9358 335.955 98.7417 335.996 98.5364 335.996C98.2425 335.996 98.0042 335.914 97.8215 335.75C97.6407 335.586 97.5503 335.379 97.5503 335.128C97.5503 334.831 97.6736 334.595 97.9204 334.422C98.1691 334.249 98.5147 334.162 98.9574 334.162H99.5706V333.815C99.5706 333.596 99.5028 333.425 99.3672 333.3C99.2334 333.174 99.0375 333.111 98.7794 333.111C98.5439 333.111 98.349 333.171 98.1945 333.292C98.04 333.412 97.9628 333.557 97.9628 333.727L97.6237 333.724C97.6237 333.481 97.7368 333.271 97.9628 333.094C98.1889 332.915 98.4667 332.826 98.7964 332.826C99.1373 332.826 99.4058 332.911 99.6017 333.083C99.7995 333.252 99.9012 333.49 99.9069 333.795V335.242C99.9069 335.537 99.9379 335.759 100 335.906V335.939H99.6384ZM98.576 335.696C98.802 335.696 99.0036 335.642 99.1807 335.533C99.3596 335.423 99.4896 335.277 99.5706 335.095V334.422H98.9659C98.6287 334.426 98.365 334.488 98.1747 334.609C97.9845 334.727 97.8893 334.891 97.8893 335.1C97.8893 335.272 97.9524 335.414 98.0787 335.527C98.2068 335.64 98.3725 335.696 98.576 335.696ZM101.133 332.882L101.144 333.405C101.259 333.216 101.403 333.073 101.574 332.975C101.745 332.876 101.935 332.826 102.142 332.826C102.47 332.826 102.714 332.918 102.874 333.103C103.034 333.287 103.115 333.564 103.117 333.933V335.939H102.781V333.93C102.779 333.657 102.72 333.454 102.605 333.32C102.492 333.186 102.311 333.119 102.06 333.119C101.851 333.119 101.665 333.185 101.503 333.317C101.343 333.447 101.225 333.623 101.147 333.846V335.939H100.811V332.882H101.133ZM104.371 335.939H104.032V332.882H104.371V335.939ZM103.973 331.998C103.973 331.934 103.994 331.88 104.035 331.837C104.077 331.791 104.133 331.769 104.205 331.769C104.276 331.769 104.333 331.791 104.374 331.837C104.418 331.88 104.439 331.934 104.439 331.998C104.439 332.062 104.418 332.115 104.374 332.159C104.333 332.202 104.276 332.224 104.205 332.224C104.133 332.224 104.077 332.202 104.035 332.159C103.994 332.115 103.973 332.062 103.973 331.998ZM106.423 335.711C106.658 335.711 106.855 335.645 107.013 335.513C107.173 335.379 107.26 335.207 107.273 334.996H107.598C107.589 335.182 107.53 335.353 107.423 335.507C107.316 335.66 107.173 335.779 106.994 335.866C106.817 335.953 106.626 335.996 106.423 335.996C106.022 335.996 105.703 335.857 105.468 335.578C105.234 335.299 105.117 334.924 105.117 334.453V334.351C105.117 334.05 105.17 333.783 105.276 333.552C105.381 333.32 105.532 333.141 105.728 333.015C105.925 332.889 106.156 332.826 106.42 332.826C106.755 332.826 107.031 332.925 107.248 333.125C107.466 333.325 107.583 333.588 107.598 333.913H107.273C107.258 333.674 107.172 333.481 107.013 333.334C106.857 333.187 106.659 333.114 106.42 333.114C106.115 333.114 105.877 333.224 105.708 333.444C105.54 333.665 105.456 333.974 105.456 334.371V334.47C105.456 334.86 105.54 335.164 105.708 335.383C105.877 335.601 106.116 335.711 106.423 335.711ZM90.8196 342.162C90.8196 341.995 90.7518 341.86 90.6161 341.758C90.4824 341.657 90.2799 341.577 90.0086 341.521C89.7373 341.463 89.5264 341.397 89.3757 341.323C89.2268 341.248 89.1157 341.156 89.0422 341.049C88.9707 340.942 88.9349 340.812 88.9349 340.659C88.9349 340.418 89.0356 340.219 89.2372 340.063C89.4388 339.905 89.6968 339.826 90.0114 339.826C90.3524 339.826 90.6255 339.91 90.8309 340.08C91.0381 340.248 91.1417 340.467 91.1417 340.738H90.8026C90.8026 340.559 90.7273 340.41 90.5766 340.292C90.4277 340.173 90.2394 340.114 90.0114 340.114C89.7891 340.114 89.6102 340.164 89.4746 340.264C89.3408 340.362 89.2739 340.49 89.2739 340.648C89.2739 340.8 89.3295 340.919 89.4407 341.004C89.5537 341.087 89.7581 341.163 90.0538 341.233C90.3515 341.302 90.5737 341.377 90.7207 341.456C90.8695 341.535 90.9797 341.63 91.0513 341.741C91.1229 341.853 91.1586 341.987 91.1586 342.145C91.1586 342.404 91.0541 342.61 90.845 342.764C90.6378 342.919 90.3665 342.996 90.0312 342.996C89.6752 342.996 89.386 342.91 89.1637 342.739C88.9433 342.566 88.8331 342.347 88.8331 342.083H89.1722C89.1854 342.281 89.2683 342.436 89.4209 342.547C89.5753 342.656 89.7788 342.711 90.0312 342.711C90.2667 342.711 90.4569 342.659 90.602 342.555C90.747 342.452 90.8196 342.321 90.8196 342.162ZM93.8882 342.552C93.6848 342.848 93.3598 342.996 92.9134 342.996C92.5875 342.996 92.3398 342.902 92.1702 342.713C92.0007 342.523 91.914 342.242 91.9103 341.871V339.882H92.2465V341.829C92.2465 342.411 92.482 342.702 92.9529 342.702C93.4427 342.702 93.7526 342.5 93.8826 342.095V339.882H94.2216V342.939H93.8939L93.8882 342.552ZM95.4819 342.939H95.1428V338.599H95.4819V342.939ZM96.6065 342.939V340.159H96.0979V339.882H96.6065V339.568C96.6065 339.243 96.695 338.99 96.8721 338.811C97.0492 338.63 97.2988 338.54 97.6209 338.54C97.8733 338.54 98.1333 338.595 98.4008 338.707L98.3443 338.998C98.1144 338.898 97.8809 338.848 97.6435 338.848C97.1782 338.848 96.9456 339.09 96.9456 339.574V339.882H97.6605V340.159H96.9456V342.939H96.6065ZM98.5844 342.939H98.2454V339.882H98.5844V342.939ZM99.3756 341.383C99.3756 340.908 99.4811 340.53 99.6921 340.249C99.905 339.967 100.193 339.826 100.557 339.826C100.969 339.826 101.284 339.989 101.501 340.314V338.599H101.837V342.939H101.52L101.506 342.533C101.29 342.841 100.971 342.996 100.551 342.996C100.199 342.996 99.9144 342.855 99.6978 342.572C99.483 342.288 99.3756 341.904 99.3756 341.422V341.383ZM99.7175 341.442C99.7175 341.832 99.7957 342.14 99.9521 342.366C100.108 342.59 100.329 342.702 100.613 342.702C101.03 342.702 101.325 342.518 101.501 342.151V340.716C101.325 340.318 101.031 340.119 100.619 340.119C100.334 340.119 100.113 340.232 99.9549 340.456C99.7967 340.678 99.7175 341.007 99.7175 341.442ZM103.911 342.996C103.651 342.996 103.415 342.932 103.204 342.804C102.995 342.676 102.832 342.498 102.716 342.27C102.599 342.04 102.54 341.783 102.54 341.498V341.377C102.54 341.083 102.597 340.818 102.71 340.583C102.825 340.347 102.984 340.163 103.187 340.029C103.391 339.893 103.611 339.826 103.849 339.826C104.22 339.826 104.514 339.953 104.73 340.207C104.949 340.459 105.058 340.805 105.058 341.244V341.433H102.877V341.498C102.877 341.845 102.976 342.134 103.173 342.366C103.373 342.596 103.624 342.711 103.925 342.711C104.106 342.711 104.265 342.678 104.402 342.612C104.542 342.546 104.668 342.44 104.781 342.295L104.993 342.456C104.744 342.816 104.384 342.996 103.911 342.996ZM103.849 340.114C103.594 340.114 103.38 340.207 103.204 340.394C103.031 340.58 102.926 340.831 102.888 341.145H104.722V341.108C104.712 340.815 104.629 340.575 104.47 340.391C104.312 340.206 104.105 340.114 103.849 340.114ZM107.547 342.162C107.547 341.995 107.48 341.86 107.344 341.758C107.21 341.657 107.008 341.577 106.736 341.521C106.465 341.463 106.254 341.397 106.103 341.323C105.955 341.248 105.844 341.156 105.77 341.049C105.698 340.942 105.663 340.812 105.663 340.659C105.663 340.418 105.763 340.219 105.965 340.063C106.167 339.905 106.425 339.826 106.739 339.826C107.08 339.826 107.353 339.91 107.559 340.08C107.766 340.248 107.87 340.467 107.87 340.738H107.53C107.53 340.559 107.455 340.41 107.304 340.292C107.156 340.173 106.967 340.114 106.739 340.114C106.517 340.114 106.338 340.164 106.202 340.264C106.069 340.362 106.002 340.49 106.002 340.648C106.002 340.8 106.057 340.919 106.168 341.004C106.282 341.087 106.486 341.163 106.782 341.233C107.079 341.302 107.302 341.377 107.449 341.456C107.597 341.535 107.708 341.63 107.779 341.741C107.851 341.853 107.886 341.987 107.886 342.145C107.886 342.404 107.782 342.61 107.573 342.764C107.366 342.919 107.094 342.996 106.759 342.996C106.403 342.996 106.114 342.91 105.892 342.739C105.671 342.566 105.561 342.347 105.561 342.083H105.9C105.913 342.281 105.996 342.436 106.149 342.547C106.303 342.656 106.507 342.711 106.759 342.711C106.995 342.711 107.185 342.659 107.33 342.555C107.475 342.452 107.547 342.321 107.547 342.162Z" fill="black"/>
<g opacity="0.43">
<path opacity="0.95" d="M368.059 186.708C368.059 157.306 358.833 128.646 341.682 104.766C324.531 80.8854 300.319 62.9887 272.457 53.5977L241.611 145.111C250.318 148.046 257.884 153.638 263.244 161.101C268.604 168.564 271.487 177.52 271.487 186.708H368.059Z" fill="#284B4D" stroke="white" stroke-width="1.75585"/>
</g>
<path d="M272.447 53.5945C245.527 44.5209 216.49 43.8224 189.165 51.5911C161.841 59.3598 137.514 75.2307 119.395 97.1094L193.772 158.706C199.434 151.869 207.036 146.909 215.575 144.482C224.114 142.054 233.188 142.272 241.601 145.108L272.447 53.5945Z" fill="#1E7483" stroke="white" stroke-width="1.75585"/>
<path opacity="0.94" d="M119.393 97.1113C97.6838 123.324 86.2306 156.528 87.162 190.551C88.0934 224.573 101.346 257.1 124.456 282.087L195.352 216.513C188.13 208.705 183.989 198.54 183.698 187.908C183.407 177.276 186.986 166.9 193.77 158.708L119.393 97.1113Z" fill="#205F6A" stroke="white" stroke-width="1.75585"/>
<path d="M124.467 282.089C136.633 295.243 151.203 305.948 167.392 313.626L208.777 226.371C203.718 223.971 199.165 220.626 195.363 216.516L124.467 282.089Z" fill="#569095" stroke="white" stroke-width="1.75585"/>
<path opacity="0.69" d="M167.391 313.623C200.832 329.484 239.182 331.505 274.106 319.248C309.03 306.99 337.705 281.444 353.898 248.162L267.059 205.911C261.999 216.312 253.038 224.295 242.124 228.125C231.21 231.956 219.226 231.324 208.775 226.367L167.391 313.623Z" fill="#21393E" stroke="white" stroke-width="1.75585"/>
<path d="M353.894 248.163C363.21 229.016 368.051 208.001 368.051 186.707H271.479C271.479 193.361 269.966 199.929 267.055 205.912L353.894 248.163Z" fill="#06565D" stroke="white" stroke-width="1.75585"/>
<path d="M341.678 104.765L370.201 84.2793" stroke="#3FA2B3" stroke-width="1.75585"/>
<path d="M379.631 83.3574H372.049V82.3005L376.055 77.8501C376.648 77.1772 377.056 76.6315 377.279 76.2129C377.507 75.7891 377.62 75.352 377.62 74.9017C377.62 74.2977 377.438 73.8023 377.072 73.4156C376.707 73.0288 376.219 72.8354 375.61 72.8354C374.879 72.8354 374.309 73.0447 373.901 73.4632C373.499 73.8765 373.297 74.454 373.297 75.1957H371.827C371.827 74.1308 372.169 73.2699 372.852 72.6129C373.541 71.9559 374.46 71.6275 375.61 71.6275C376.685 71.6275 377.536 71.9109 378.161 72.4778C378.786 73.0394 379.099 73.7891 379.099 74.7268C379.099 75.8659 378.373 77.2222 376.921 78.7958L373.822 82.1574H379.631V83.3574ZM387.395 79.4713H389.001V80.6713H387.395V83.3574H385.917V80.6713H380.648V79.8051L385.83 71.7864H387.395V79.4713ZM382.317 79.4713H385.917V73.797L385.742 74.1149L382.317 79.4713ZM390.511 82.5865C390.511 82.3322 390.585 82.1203 390.733 81.9508C390.887 81.7812 391.115 81.6965 391.417 81.6965C391.719 81.6965 391.946 81.7812 392.1 81.9508C392.259 82.1203 392.339 82.3322 392.339 82.5865C392.339 82.8303 392.259 83.0342 392.1 83.1985C391.946 83.3627 391.719 83.4448 391.417 83.4448C391.115 83.4448 390.887 83.3627 390.733 83.1985C390.585 83.0342 390.511 82.8303 390.511 82.5865ZM400.389 71.7784V73.0261H400.119C398.974 73.0473 398.063 73.3864 397.385 74.0434C396.707 74.7003 396.315 75.6249 396.209 76.8169C396.818 76.1176 397.65 75.7679 398.704 75.7679C399.711 75.7679 400.513 76.1229 401.112 76.8328C401.716 77.5428 402.018 78.4593 402.018 79.5825C402.018 80.7746 401.692 81.7283 401.041 82.4435C400.394 83.1587 399.525 83.5164 398.434 83.5164C397.327 83.5164 396.429 83.0925 395.74 82.2448C395.051 81.3918 394.707 80.2951 394.707 78.9547V78.3905C394.707 76.2606 395.16 74.6341 396.066 73.5109C396.977 72.3824 398.331 71.8049 400.127 71.7784H400.389ZM398.458 76.9918C397.954 76.9918 397.491 77.1428 397.067 77.4448C396.643 77.7467 396.349 78.1256 396.185 78.5812V79.1216C396.185 80.0753 396.4 80.8435 396.829 81.4263C397.258 82.0091 397.793 82.3005 398.434 82.3005C399.096 82.3005 399.615 82.0567 399.992 81.5693C400.373 81.0819 400.564 80.4435 400.564 79.6541C400.564 78.8593 400.37 78.2183 399.984 77.7309C399.602 77.2381 399.094 76.9918 398.458 76.9918ZM403.631 74.0116C403.631 73.3175 403.851 72.7454 404.291 72.295C404.736 71.8447 405.306 71.6195 406 71.6195C406.704 71.6195 407.274 71.8473 407.708 72.303C408.148 72.7533 408.368 73.3387 408.368 74.0593V74.6235C408.368 75.3229 408.145 75.8951 407.7 76.3401C407.261 76.7798 406.699 76.9997 406.016 76.9997C405.327 76.9997 404.757 76.7798 404.307 76.3401C403.857 75.8951 403.631 75.3043 403.631 74.5679V74.0116ZM404.728 74.6235C404.728 75.0368 404.845 75.3785 405.078 75.6487C405.311 75.9136 405.623 76.0461 406.016 76.0461C406.392 76.0461 406.694 75.9163 406.922 75.6567C407.155 75.397 407.271 75.0421 407.271 74.5917V74.0116C407.271 73.5983 407.157 73.2566 406.929 72.9864C406.702 72.7162 406.392 72.5811 406 72.5811C405.608 72.5811 405.298 72.7162 405.07 72.9864C404.842 73.2566 404.728 73.6089 404.728 74.0434V74.6235ZM409.266 80.5203C409.266 79.8262 409.486 79.2567 409.926 78.8117C410.371 78.3613 410.94 78.1362 411.634 78.1362C412.328 78.1362 412.898 78.3587 413.343 78.8037C413.788 79.2488 414.01 79.8395 414.01 80.5759V81.1402C414.01 81.8342 413.788 82.4064 413.343 82.8568C412.903 83.3018 412.339 83.5243 411.65 83.5243C410.961 83.5243 410.392 83.3044 409.941 82.8647C409.491 82.4197 409.266 81.8289 409.266 81.0925V80.5203ZM410.363 81.1402C410.363 81.5587 410.479 81.9031 410.712 82.1733C410.945 82.4382 411.258 82.5707 411.65 82.5707C412.032 82.5707 412.336 82.4409 412.564 82.1812C412.792 81.9163 412.906 81.5587 412.906 81.1084V80.5203C412.906 80.1017 412.789 79.76 412.556 79.4951C412.328 79.2302 412.021 79.0978 411.634 79.0978C411.258 79.0978 410.951 79.2302 410.712 79.4951C410.479 79.7547 410.363 80.107 410.363 80.5521V81.1402ZM406.349 82.4832L405.515 81.9587L411.165 72.9149L412 73.4394L406.349 82.4832Z" fill="#A3B9CF"/>
<path d="M189.168 51.5928L179.564 17.8145" stroke="#3FA2B3" stroke-width="1.75585"/>
<path d="M152.065 6.44888C152.065 7.02638 151.911 7.54029 151.604 7.99063C151.302 8.44097 150.891 8.79329 150.372 9.0476C150.976 9.3072 151.453 9.68602 151.802 10.184C152.157 10.6821 152.335 11.2463 152.335 11.8768C152.335 12.8781 151.996 13.6755 151.318 14.2689C150.645 14.8622 149.757 15.1589 148.655 15.1589C147.543 15.1589 146.65 14.8622 145.977 14.2689C145.31 13.6702 144.976 12.8728 144.976 11.8768C144.976 11.2516 145.145 10.6874 145.484 10.184C145.829 9.68072 146.303 9.29926 146.907 9.03965C146.393 8.78534 145.988 8.43302 145.691 7.98268C145.394 7.53234 145.246 7.02108 145.246 6.44888C145.246 5.47404 145.559 4.70052 146.184 4.12832C146.809 3.55613 147.633 3.27003 148.655 3.27003C149.673 3.27003 150.494 3.55613 151.119 4.12832C151.749 4.70052 152.065 5.47404 152.065 6.44888ZM150.865 11.845C150.865 11.1986 150.658 10.6715 150.245 10.2635C149.837 9.85556 149.302 9.65158 148.639 9.65158C147.977 9.65158 147.445 9.85291 147.042 10.2556C146.645 10.6582 146.446 11.188 146.446 11.845C146.446 12.502 146.639 13.0185 147.026 13.3947C147.418 13.7708 147.961 13.9589 148.655 13.9589C149.344 13.9589 149.885 13.7708 150.277 13.3947C150.669 13.0132 150.865 12.4967 150.865 11.845ZM148.655 4.478C148.078 4.478 147.609 4.65813 147.249 5.0184C146.894 5.37337 146.716 5.85815 146.716 6.47273C146.716 7.06081 146.891 7.53764 147.241 7.90321C147.596 8.26348 148.067 8.44362 148.655 8.44362C149.243 8.44362 149.712 8.26348 150.062 7.90321C150.417 7.53764 150.594 7.06081 150.594 6.47273C150.594 5.88464 150.412 5.40516 150.046 5.0343C149.681 4.66343 149.217 4.478 148.655 4.478ZM161.204 6.44888C161.204 7.02638 161.05 7.54029 160.743 7.99063C160.441 8.44097 160.03 8.79329 159.511 9.0476C160.115 9.3072 160.592 9.68602 160.942 10.184C161.297 10.6821 161.474 11.2463 161.474 11.8768C161.474 12.8781 161.135 13.6755 160.457 14.2689C159.784 14.8622 158.897 15.1589 157.795 15.1589C156.682 15.1589 155.789 14.8622 155.116 14.2689C154.449 13.6702 154.115 12.8728 154.115 11.8768C154.115 11.2516 154.285 10.6874 154.624 10.184C154.968 9.68072 155.442 9.29926 156.046 9.03965C155.532 8.78534 155.127 8.43302 154.83 7.98268C154.534 7.53234 154.385 7.02108 154.385 6.44888C154.385 5.47404 154.698 4.70052 155.323 4.12832C155.948 3.55613 156.772 3.27003 157.795 3.27003C158.812 3.27003 159.633 3.55613 160.258 4.12832C160.889 4.70052 161.204 5.47404 161.204 6.44888ZM160.004 11.845C160.004 11.1986 159.797 10.6715 159.384 10.2635C158.976 9.85556 158.441 9.65158 157.779 9.65158C157.116 9.65158 156.584 9.85291 156.181 10.2556C155.784 10.6582 155.585 11.188 155.585 11.845C155.585 12.502 155.779 13.0185 156.165 13.3947C156.557 13.7708 157.101 13.9589 157.795 13.9589C158.483 13.9589 159.024 13.7708 159.416 13.3947C159.808 13.0132 160.004 12.4967 160.004 11.845ZM157.795 4.478C157.217 4.478 156.748 4.65813 156.388 5.0184C156.033 5.37337 155.855 5.85815 155.855 6.47273C155.855 7.06081 156.03 7.53764 156.38 7.90321C156.735 8.26348 157.206 8.44362 157.795 8.44362C158.383 8.44362 158.852 8.26348 159.201 7.90321C159.556 7.53764 159.734 7.06081 159.734 6.47273C159.734 5.88464 159.551 5.40516 159.185 5.0343C158.82 4.66343 158.356 4.478 157.795 4.478ZM163.509 14.2291C163.509 13.9748 163.583 13.7629 163.731 13.5934C163.885 13.4238 164.113 13.339 164.415 13.339C164.717 13.339 164.944 13.4238 165.098 13.5934C165.257 13.7629 165.336 13.9748 165.336 14.2291C165.336 14.4728 165.257 14.6768 165.098 14.8411C164.944 15.0053 164.717 15.0874 164.415 15.0874C164.113 15.0874 163.885 15.0053 163.731 14.8411C163.583 14.6768 163.509 14.4728 163.509 14.2291ZM173.824 11.1139H175.429V12.3139H173.824V15H172.346V12.3139H167.077V11.4476L172.258 3.42897H173.824V11.1139ZM168.746 11.1139H172.346V5.4396L172.171 5.75748L168.746 11.1139ZM176.629 5.65417C176.629 4.96012 176.849 4.38793 177.289 3.93759C177.734 3.48725 178.303 3.26208 178.998 3.26208C179.702 3.26208 180.272 3.4899 180.706 3.94554C181.146 4.39588 181.366 4.98131 181.366 5.70185V6.2661C181.366 6.96545 181.143 7.53764 180.698 7.98268C180.258 8.42242 179.697 8.64229 179.013 8.64229C178.325 8.64229 177.755 8.42242 177.305 7.98268C176.854 7.53764 176.629 6.94691 176.629 6.21047V5.65417ZM177.726 6.2661C177.726 6.67935 177.843 7.02108 178.076 7.29128C178.309 7.55619 178.621 7.68864 179.013 7.68864C179.39 7.68864 179.692 7.55883 179.919 7.29923C180.152 7.03962 180.269 6.68465 180.269 6.23431V5.65417C180.269 5.24092 180.155 4.89919 179.927 4.62899C179.699 4.35879 179.39 4.22369 178.998 4.22369C178.605 4.22369 178.296 4.35879 178.068 4.62899C177.84 4.89919 177.726 5.25152 177.726 5.68596V6.2661ZM182.264 12.1629C182.264 11.4688 182.484 10.8993 182.923 10.4542C183.368 10.0039 183.938 9.77873 184.632 9.77873C185.326 9.77873 185.896 10.0013 186.341 10.4463C186.786 10.8913 187.008 11.4821 187.008 12.2185V12.7827C187.008 13.4768 186.786 14.049 186.341 14.4993C185.901 14.9444 185.337 15.1669 184.648 15.1669C183.959 15.1669 183.39 14.947 182.939 14.5073C182.489 14.0622 182.264 13.4715 182.264 12.7351V12.1629ZM183.36 12.7827C183.36 13.2013 183.477 13.5457 183.71 13.8159C183.943 14.0808 184.256 14.2132 184.648 14.2132C185.029 14.2132 185.334 14.0834 185.562 13.8238C185.79 13.5589 185.904 13.2013 185.904 12.751V12.1629C185.904 11.7443 185.787 11.4026 185.554 11.1377C185.326 10.8728 185.019 10.7403 184.632 10.7403C184.256 10.7403 183.949 10.8728 183.71 11.1377C183.477 11.3973 183.36 11.7496 183.36 12.1947V12.7827ZM179.347 14.1258L178.513 13.6013L184.163 4.55747L184.998 5.08198L179.347 14.1258Z" fill="#A3B9CF"/>
<path d="M83.9164 190.551L48.8125 191.512" stroke="#3FA2B3" stroke-width="1.75585"/>
<path d="M17.9708 175.693L13.1787 186.438H11.6369L16.4131 176.074H10.1508V174.866H17.9708V175.693ZM25.2742 181.351C24.9669 181.717 24.5987 182.011 24.1695 182.233C23.7457 182.456 23.2795 182.567 22.7708 182.567C22.1033 182.567 21.5205 182.403 21.0225 182.075C20.5298 181.746 20.1483 181.285 19.8781 180.692C19.6079 180.093 19.4728 179.433 19.4728 178.713C19.4728 177.939 19.6185 177.243 19.9099 176.623C20.2066 176.003 20.6251 175.529 21.1655 175.2C21.7059 174.872 22.3364 174.708 23.0569 174.708C24.2013 174.708 25.102 175.137 25.759 175.995C26.4212 176.848 26.7524 178.014 26.7524 179.492V179.921C26.7524 182.173 26.3073 183.818 25.4172 184.856C24.5272 185.889 23.1841 186.419 21.388 186.445H21.102V185.206H21.4119C22.6252 185.185 23.5576 184.869 24.2093 184.26C24.8609 183.645 25.2159 182.676 25.2742 181.351ZM23.0093 181.351C23.502 181.351 23.955 181.2 24.3682 180.898C24.7868 180.596 25.0914 180.223 25.2821 179.778V179.19C25.2821 178.225 25.0729 177.441 24.6543 176.837C24.2358 176.233 23.706 175.931 23.0649 175.931C22.4185 175.931 21.8993 176.18 21.5073 176.678C21.1152 177.171 20.9192 177.823 20.9192 178.633C20.9192 179.423 21.1072 180.074 21.4834 180.588C21.8649 181.097 22.3735 181.351 23.0093 181.351ZM28.9617 185.667C28.9617 185.412 29.0358 185.2 29.1842 185.031C29.3378 184.861 29.5656 184.777 29.8676 184.777C30.1696 184.777 30.3974 184.861 30.5511 185.031C30.71 185.2 30.7895 185.412 30.7895 185.667C30.7895 185.91 30.71 186.114 30.5511 186.279C30.3974 186.443 30.1696 186.525 29.8676 186.525C29.5656 186.525 29.3378 186.443 29.1842 186.279C29.0358 186.114 28.9617 185.91 28.9617 185.667ZM40.0877 177.886C40.0877 178.464 39.934 178.978 39.6267 179.428C39.3247 179.878 38.9141 180.231 38.3949 180.485C38.9989 180.745 39.4757 181.124 39.8254 181.622C40.1804 182.12 40.3579 182.684 40.3579 183.314C40.3579 184.316 40.0188 185.113 39.3406 185.706C38.6678 186.3 37.7803 186.596 36.6783 186.596C35.5657 186.596 34.673 186.3 34.0001 185.706C33.3326 185.108 32.9988 184.31 32.9988 183.314C32.9988 182.689 33.1683 182.125 33.5074 181.622C33.8518 181.118 34.326 180.737 34.93 180.477C34.416 180.223 34.0107 179.871 33.7141 179.42C33.4174 178.97 33.269 178.459 33.269 177.886C33.269 176.912 33.5816 176.138 34.2068 175.566C34.8319 174.994 35.6558 174.708 36.6783 174.708C37.6956 174.708 38.5168 174.994 39.1419 175.566C39.7724 176.138 40.0877 176.912 40.0877 177.886ZM38.8876 183.282C38.8876 182.636 38.681 182.109 38.2678 181.701C37.8598 181.293 37.3247 181.089 36.6624 181.089C36.0002 181.089 35.4677 181.29 35.0651 181.693C34.6677 182.096 34.469 182.626 34.469 183.282C34.469 183.939 34.6624 184.456 35.0492 184.832C35.4412 185.208 35.9843 185.396 36.6783 185.396C37.3671 185.396 37.9075 185.208 38.2995 184.832C38.6916 184.451 38.8876 183.934 38.8876 183.282ZM36.6783 175.915C36.1008 175.915 35.632 176.096 35.2717 176.456C34.9167 176.811 34.7392 177.296 34.7392 177.91C34.7392 178.498 34.9141 178.975 35.2637 179.341C35.6187 179.701 36.0902 179.881 36.6783 179.881C37.2664 179.881 37.7353 179.701 38.085 179.341C38.4399 178.975 38.6174 178.498 38.6174 177.91C38.6174 177.322 38.4346 176.843 38.0691 176.472C37.7035 176.101 37.2399 175.915 36.6783 175.915ZM42.0824 177.092C42.0824 176.398 42.3023 175.825 42.742 175.375C43.187 174.925 43.7566 174.7 44.4506 174.7C45.1553 174.7 45.7248 174.927 46.1593 175.383C46.599 175.833 46.8189 176.419 46.8189 177.139V177.704C46.8189 178.403 46.5964 178.975 46.1513 179.42C45.7116 179.86 45.15 180.08 44.4665 180.08C43.7778 180.08 43.2082 179.86 42.7579 179.42C42.3076 178.975 42.0824 178.384 42.0824 177.648V177.092ZM43.1791 177.704C43.1791 178.117 43.2956 178.459 43.5288 178.729C43.7619 178.994 44.0745 179.126 44.4665 179.126C44.8427 179.126 45.1447 178.996 45.3725 178.737C45.6056 178.477 45.7222 178.122 45.7222 177.672V177.092C45.7222 176.678 45.6083 176.337 45.3804 176.066C45.1526 175.796 44.8427 175.661 44.4506 175.661C44.0586 175.661 43.7486 175.796 43.5208 176.066C43.293 176.337 43.1791 176.689 43.1791 177.123V177.704ZM47.7169 183.6C47.7169 182.906 47.9368 182.337 48.3765 181.892C48.8216 181.441 49.3911 181.216 50.0851 181.216C50.7792 181.216 51.3487 181.439 51.7938 181.884C52.2388 182.329 52.4613 182.92 52.4613 183.656V184.22C52.4613 184.914 52.2388 185.486 51.7938 185.937C51.354 186.382 50.7898 186.604 50.101 186.604C49.4123 186.604 48.8427 186.385 48.3924 185.945C47.9421 185.5 47.7169 184.909 47.7169 184.173V183.6ZM48.8136 184.22C48.8136 184.639 48.9302 184.983 49.1633 185.253C49.3964 185.518 49.709 185.651 50.101 185.651C50.4825 185.651 50.7871 185.521 51.015 185.261C51.2428 184.996 51.3567 184.639 51.3567 184.188V183.6C51.3567 183.182 51.2401 182.84 51.007 182.575C50.7792 182.31 50.4719 182.178 50.0851 182.178C49.709 182.178 49.4017 182.31 49.1633 182.575C48.9302 182.835 48.8136 183.187 48.8136 183.632V184.22ZM44.8003 185.563L43.9659 185.039L49.6163 175.995L50.4507 176.519L44.8003 185.563Z" fill="#A3B9CF"/>
<path d="M144.419 299.908L123.627 328.209" stroke="#3FA2B3" stroke-width="1.75585"/>
<path d="M83.6917 328.58H82.2135V318.781L79.2493 319.87V318.535L83.4612 316.953H83.6917V328.58ZM90.1368 322.079H91.2415C91.9355 322.069 92.4812 321.886 92.8786 321.531C93.2759 321.176 93.4746 320.697 93.4746 320.093C93.4746 318.736 92.7991 318.058 91.4481 318.058C90.8123 318.058 90.3037 318.241 89.9223 318.606C89.5461 318.967 89.358 319.446 89.358 320.045H87.8878C87.8878 319.128 88.2216 318.368 88.8891 317.764C89.562 317.155 90.415 316.85 91.4481 316.85C92.5395 316.85 93.3952 317.139 94.015 317.716C94.6349 318.294 94.9448 319.096 94.9448 320.124C94.9448 320.628 94.7806 321.115 94.4521 321.587C94.1289 322.058 93.6866 322.41 93.125 322.644C93.7607 322.845 94.2508 323.179 94.5952 323.645C94.9448 324.111 95.1197 324.681 95.1197 325.354C95.1197 326.392 94.7806 327.216 94.1025 327.825C93.4243 328.434 92.5422 328.739 91.4561 328.739C90.3699 328.739 89.4852 328.445 88.8017 327.857C88.1236 327.269 87.7845 326.493 87.7845 325.528H89.2626C89.2626 326.138 89.4613 326.625 89.8587 326.991C90.256 327.356 90.7885 327.539 91.4561 327.539C92.166 327.539 92.7091 327.354 93.0852 326.983C93.4614 326.612 93.6495 326.079 93.6495 325.385C93.6495 324.712 93.4428 324.196 93.0296 323.836C92.6163 323.475 92.0203 323.29 91.2415 323.279H90.1368V322.079ZM97.321 327.809C97.321 327.555 97.3952 327.343 97.5436 327.173C97.6972 327.004 97.925 326.919 98.227 326.919C98.529 326.919 98.7568 327.004 98.9105 327.173C99.0694 327.343 99.1489 327.555 99.1489 327.809C99.1489 328.053 99.0694 328.257 98.9105 328.421C98.7568 328.585 98.529 328.667 98.227 328.667C97.925 328.667 97.6972 328.585 97.5436 328.421C97.3952 328.257 97.321 328.053 97.321 327.809ZM109.011 328.58H101.43V327.523L105.435 323.073C106.028 322.4 106.436 321.854 106.659 321.436C106.887 321.012 107.001 320.575 107.001 320.124C107.001 319.52 106.818 319.025 106.452 318.638C106.087 318.251 105.599 318.058 104.99 318.058C104.259 318.058 103.689 318.267 103.281 318.686C102.879 319.099 102.677 319.677 102.677 320.418H101.207C101.207 319.353 101.549 318.493 102.232 317.836C102.921 317.179 103.84 316.85 104.99 316.85C106.066 316.85 106.916 317.134 107.541 317.7C108.166 318.262 108.479 319.012 108.479 319.949C108.479 321.089 107.753 322.445 106.301 324.018L103.202 327.38H109.011V328.58ZM110.442 319.234C110.442 318.54 110.662 317.968 111.101 317.518C111.546 317.067 112.116 316.842 112.81 316.842C113.515 316.842 114.084 317.07 114.519 317.526C114.958 317.976 115.178 318.561 115.178 319.282V319.846C115.178 320.546 114.956 321.118 114.511 321.563C114.071 322.003 113.509 322.222 112.826 322.222C112.137 322.222 111.568 322.003 111.117 321.563C110.667 321.118 110.442 320.527 110.442 319.791V319.234ZM111.538 319.846C111.538 320.259 111.655 320.601 111.888 320.871C112.121 321.136 112.434 321.269 112.826 321.269C113.202 321.269 113.504 321.139 113.732 320.879C113.965 320.62 114.082 320.265 114.082 319.814V319.234C114.082 318.821 113.968 318.479 113.74 318.209C113.512 317.939 113.202 317.804 112.81 317.804C112.418 317.804 112.108 317.939 111.88 318.209C111.652 318.479 111.538 318.832 111.538 319.266V319.846ZM116.076 325.743C116.076 325.049 116.296 324.479 116.736 324.034C117.181 323.584 117.75 323.359 118.445 323.359C119.139 323.359 119.708 323.581 120.153 324.026C120.598 324.471 120.821 325.062 120.821 325.799V326.363C120.821 327.057 120.598 327.629 120.153 328.079C119.713 328.524 119.149 328.747 118.46 328.747C117.772 328.747 117.202 328.527 116.752 328.087C116.301 327.642 116.076 327.052 116.076 326.315V325.743ZM117.173 326.363C117.173 326.781 117.29 327.126 117.523 327.396C117.756 327.661 118.068 327.793 118.46 327.793C118.842 327.793 119.147 327.664 119.374 327.404C119.602 327.139 119.716 326.781 119.716 326.331V325.743C119.716 325.324 119.6 324.983 119.366 324.718C119.139 324.453 118.831 324.32 118.445 324.32C118.068 324.32 117.761 324.453 117.523 324.718C117.29 324.977 117.173 325.33 117.173 325.775V326.363ZM113.16 327.706L112.325 327.181L117.976 318.138L118.81 318.662L113.16 327.706Z" fill="#A3B9CF"/>
<path d="M274.107 319.248L293.197 352.383" stroke="#3FA2B3" stroke-width="1.75585"/>
<path d="M301.973 348.822C301.666 349.188 301.298 349.482 300.868 349.704C300.445 349.927 299.978 350.038 299.47 350.038C298.802 350.038 298.219 349.874 297.721 349.545C297.229 349.217 296.847 348.756 296.577 348.162C296.307 347.564 296.172 346.904 296.172 346.184C296.172 345.41 296.317 344.713 296.609 344.093C296.905 343.474 297.324 342.999 297.864 342.671C298.405 342.342 299.035 342.178 299.756 342.178C300.9 342.178 301.801 342.607 302.458 343.466C303.12 344.319 303.451 345.484 303.451 346.962V347.392C303.451 349.643 303.006 351.288 302.116 352.327C301.226 353.36 299.883 353.89 298.087 353.916H297.801V352.676H298.111C299.324 352.655 300.256 352.34 300.908 351.731C301.56 351.116 301.915 350.147 301.973 348.822ZM299.708 348.822C300.201 348.822 300.654 348.671 301.067 348.369C301.486 348.067 301.79 347.694 301.981 347.249V346.66C301.981 345.696 301.772 344.912 301.353 344.308C300.935 343.704 300.405 343.402 299.764 343.402C299.117 343.402 298.598 343.651 298.206 344.149C297.814 344.642 297.618 345.294 297.618 346.104C297.618 346.894 297.806 347.545 298.182 348.059C298.564 348.568 299.072 348.822 299.708 348.822ZM312.495 345.357C312.495 345.935 312.341 346.448 312.034 346.899C311.732 347.349 311.322 347.701 310.802 347.956C311.406 348.215 311.883 348.594 312.233 349.092C312.588 349.59 312.765 350.155 312.765 350.785C312.765 351.786 312.426 352.584 311.748 353.177C311.075 353.77 310.188 354.067 309.086 354.067C307.973 354.067 307.08 353.77 306.408 353.177C305.74 352.578 305.406 351.781 305.406 350.785C305.406 350.16 305.576 349.596 305.915 349.092C306.259 348.589 306.733 348.207 307.337 347.948C306.823 347.694 306.418 347.341 306.121 346.891C305.825 346.441 305.676 345.929 305.676 345.357C305.676 344.382 305.989 343.609 306.614 343.037C307.239 342.464 308.063 342.178 309.086 342.178C310.103 342.178 310.924 342.464 311.549 343.037C312.18 343.609 312.495 344.382 312.495 345.357ZM311.295 350.753C311.295 350.107 311.088 349.58 310.675 349.172C310.267 348.764 309.732 348.56 309.07 348.56C308.408 348.56 307.875 348.761 307.472 349.164C307.075 349.566 306.876 350.096 306.876 350.753C306.876 351.41 307.07 351.927 307.457 352.303C307.849 352.679 308.392 352.867 309.086 352.867C309.775 352.867 310.315 352.679 310.707 352.303C311.099 351.921 311.295 351.405 311.295 350.753ZM309.086 343.386C308.508 343.386 308.039 343.566 307.679 343.927C307.324 344.282 307.147 344.766 307.147 345.381C307.147 345.969 307.321 346.446 307.671 346.811C308.026 347.172 308.498 347.352 309.086 347.352C309.674 347.352 310.143 347.172 310.492 346.811C310.847 346.446 311.025 345.969 311.025 345.381C311.025 344.793 310.842 344.313 310.477 343.942C310.111 343.572 309.647 343.386 309.086 343.386ZM314.8 353.137C314.8 352.883 314.874 352.671 315.022 352.502C315.176 352.332 315.404 352.247 315.706 352.247C316.008 352.247 316.236 352.332 316.389 352.502C316.548 352.671 316.628 352.883 316.628 353.137C316.628 353.381 316.548 353.585 316.389 353.749C316.236 353.914 316.008 353.996 315.706 353.996C315.404 353.996 315.176 353.914 315.022 353.749C314.874 353.585 314.8 353.381 314.8 353.137ZM324.678 342.329V343.577H324.408C323.263 343.598 322.352 343.937 321.674 344.594C320.996 345.251 320.604 346.176 320.498 347.368C321.107 346.668 321.939 346.319 322.993 346.319C324 346.319 324.803 346.674 325.401 347.384C326.005 348.094 326.307 349.01 326.307 350.133C326.307 351.325 325.981 352.279 325.33 352.994C324.683 353.71 323.814 354.067 322.723 354.067C321.616 354.067 320.718 353.643 320.029 352.796C319.34 351.943 318.996 350.846 318.996 349.505V348.941C318.996 346.811 319.449 345.185 320.355 344.062C321.266 342.933 322.62 342.356 324.416 342.329H324.678ZM322.747 347.543C322.244 347.543 321.78 347.694 321.356 347.996C320.932 348.298 320.638 348.676 320.474 349.132V349.672C320.474 350.626 320.689 351.394 321.118 351.977C321.547 352.56 322.082 352.851 322.723 352.851C323.385 352.851 323.905 352.608 324.281 352.12C324.662 351.633 324.853 350.994 324.853 350.205C324.853 349.41 324.659 348.769 324.273 348.282C323.891 347.789 323.383 347.543 322.747 347.543ZM327.92 344.562C327.92 343.868 328.14 343.296 328.58 342.846C329.025 342.395 329.595 342.17 330.289 342.17C330.993 342.17 331.563 342.398 331.997 342.854C332.437 343.304 332.657 343.89 332.657 344.61V345.174C332.657 345.874 332.434 346.446 331.989 346.891C331.55 347.331 330.988 347.55 330.305 347.55C329.616 347.55 329.046 347.331 328.596 346.891C328.146 346.446 327.92 345.855 327.92 345.119V344.562ZM329.017 345.174C329.017 345.588 329.134 345.929 329.367 346.199C329.6 346.464 329.913 346.597 330.305 346.597C330.681 346.597 330.983 346.467 331.211 346.207C331.444 345.948 331.56 345.593 331.56 345.143V344.562C331.56 344.149 331.446 343.807 331.219 343.537C330.991 343.267 330.681 343.132 330.289 343.132C329.897 343.132 329.587 343.267 329.359 343.537C329.131 343.807 329.017 344.16 329.017 344.594V345.174ZM333.555 351.071C333.555 350.377 333.775 349.807 334.215 349.362C334.66 348.912 335.229 348.687 335.923 348.687C336.617 348.687 337.187 348.909 337.632 349.354C338.077 349.8 338.299 350.39 338.299 351.127V351.691C338.299 352.385 338.077 352.957 337.632 353.408C337.192 353.853 336.628 354.075 335.939 354.075C335.25 354.075 334.681 353.855 334.23 353.415C333.78 352.97 333.555 352.38 333.555 351.643V351.071ZM334.652 351.691C334.652 352.11 334.768 352.454 335.001 352.724C335.234 352.989 335.547 353.121 335.939 353.121C336.321 353.121 336.625 352.992 336.853 352.732C337.081 352.467 337.195 352.11 337.195 351.659V351.071C337.195 350.653 337.078 350.311 336.845 350.046C336.617 349.781 336.31 349.649 335.923 349.649C335.547 349.649 335.24 349.781 335.001 350.046C334.768 350.306 334.652 350.658 334.652 351.103V351.691ZM330.638 353.034L329.804 352.51L335.454 343.466L336.289 343.99L330.638 353.034Z" fill="#A3B9CF"/>
<path d="M364.471 218.241L398.692 226.124" stroke="#3FA2B3" stroke-width="1.75585"/>
<path d="M411.459 215.821L406.667 226.565H405.125L409.902 216.202H403.639V214.994H411.459V215.821ZM413.001 217.22C413.001 216.526 413.221 215.953 413.661 215.503C414.106 215.053 414.675 214.828 415.369 214.828C416.074 214.828 416.643 215.055 417.078 215.511C417.518 215.961 417.737 216.547 417.737 217.267V217.832C417.737 218.531 417.515 219.103 417.07 219.548C416.63 219.988 416.069 220.208 415.385 220.208C414.696 220.208 414.127 219.988 413.677 219.548C413.226 219.103 413.001 218.512 413.001 217.776V217.22ZM414.098 217.832C414.098 218.245 414.214 218.587 414.447 218.857C414.68 219.122 414.993 219.254 415.385 219.254C415.761 219.254 416.063 219.124 416.291 218.865C416.524 218.605 416.641 218.25 416.641 217.8V217.22C416.641 216.806 416.527 216.465 416.299 216.194C416.071 215.924 415.761 215.789 415.369 215.789C414.977 215.789 414.667 215.924 414.439 216.194C414.212 216.465 414.098 216.817 414.098 217.251V217.832ZM418.636 223.728C418.636 223.034 418.855 222.465 419.295 222.02C419.74 221.569 420.31 221.344 421.004 221.344C421.698 221.344 422.267 221.567 422.712 222.012C423.157 222.457 423.38 223.047 423.38 223.784V224.348C423.38 225.042 423.157 225.614 422.712 226.065C422.273 226.51 421.708 226.732 421.02 226.732C420.331 226.732 419.761 226.512 419.311 226.073C418.861 225.628 418.636 225.037 418.636 224.3V223.728ZM419.732 224.348C419.732 224.767 419.849 225.111 420.082 225.381C420.315 225.646 420.628 225.779 421.02 225.779C421.401 225.779 421.706 225.649 421.934 225.389C422.161 225.124 422.275 224.767 422.275 224.316V223.728C422.275 223.31 422.159 222.968 421.926 222.703C421.698 222.438 421.391 222.306 421.004 222.306C420.628 222.306 420.32 222.438 420.082 222.703C419.849 222.963 419.732 223.315 419.732 223.76V224.348ZM415.719 225.691L414.884 225.167L420.535 216.123L421.369 216.647L415.719 225.691Z" fill="#A3B9CF"/>
</svg>
