<svg width="13" height="7" viewBox="0 0 13 7" fill="none" xmlns="http://www.w3.org/2000/svg">
<path fill-rule="evenodd" clip-rule="evenodd" d="M8.14689 0.674312C8.19334 0.635774 8.24851 0.605198 8.30925 0.584335C8.37 0.563473 8.43512 0.552734 8.50088 0.552734C8.56665 0.552734 8.63177 0.563473 8.69251 0.584335C8.75326 0.605198 8.80843 0.635774 8.85488 0.674312L11.8548 3.1573C11.9014 3.19574 11.9383 3.2414 11.9635 3.29168C11.9887 3.34196 12.0017 3.39586 12.0017 3.45029C12.0017 3.50472 11.9887 3.55862 11.9635 3.6089C11.9383 3.65917 11.9014 3.70484 11.8548 3.74328L8.85488 6.22626C8.76099 6.30397 8.63366 6.34763 8.50088 6.34763C8.36811 6.34763 8.24078 6.30397 8.14689 6.22626C8.05301 6.14856 8.00026 6.04317 8.00026 5.93327C8.00026 5.82338 8.05301 5.71799 8.14689 5.64028L10.7938 3.45029L8.14689 1.2603C8.10033 1.22186 8.06339 1.17619 8.03818 1.12591C8.01297 1.07564 8 1.02174 8 0.967305C8 0.912872 8.01297 0.858973 8.03818 0.808697C8.06339 0.75842 8.10033 0.712754 8.14689 0.674312Z" fill="#A72D2D"/>
<path fill-rule="evenodd" clip-rule="evenodd" d="M0 3.45094C0 3.34119 0.0526785 3.23593 0.146447 3.15832C0.240215 3.08071 0.367392 3.03711 0.5 3.03711H11C11.1326 3.03711 11.2598 3.08071 11.3536 3.15832C11.4473 3.23593 11.5 3.34119 11.5 3.45094C11.5 3.5607 11.4473 3.66596 11.3536 3.74357C11.2598 3.82118 11.1326 3.86478 11 3.86478H0.5C0.367392 3.86478 0.240215 3.82118 0.146447 3.74357C0.0526785 3.66596 0 3.5607 0 3.45094Z" fill="#A72D2D"/>
</svg>
