<svg width="11" height="14" viewBox="0 0 11 14" fill="none" xmlns="http://www.w3.org/2000/svg">
<path d="M8.3475 1.64672H10.71V0.386719H8.3475C5.44371 0.386719 2.96124 2.22384 2.00045 4.79672H0V6.05672H1.66525C1.54492 6.78679 1.54492 7.53164 1.66525 8.26172H0V9.52172H2.00045C2.9612 12.0946 5.44371 13.9317 8.3477 13.9317H10.7102V12.6717H8.3475C7.30463 12.6708 6.28337 12.3744 5.40201 11.8169C4.52066 11.2594 3.81528 10.4636 3.36759 9.52172H9.45V8.26172H2.94584C2.79805 7.53415 2.79805 6.78429 2.94584 6.05672H9.45V4.79672H3.36759C3.81528 3.85483 4.52066 3.05905 5.40201 2.50156C6.28337 1.94406 7.30463 1.64767 8.3475 1.64672Z" fill="black" fill-opacity="0.8"/>
</svg>
